M48
; DRILL file {KiCad (5.1.6)-1} date 09/12/21 14:36:15
; FORMAT={-:-/ absolute / inch / decimal}
; #@! TF.CreationDate,2021-09-12T14:36:15-05:00
; #@! TF.GenerationSoftware,Kicad,Pcbnew,(5.1.6)-1
FMAT,2
INCH
T1C0.0315
%
G90
G05
T1
X4.7Y-2.5
X4.7Y-2.2
X4.0Y-1.5
X3.2Y-2.9
X5.1Y-2.2
X5.2Y-2.2
X2.3Y-2.9
X4.7Y-3.7
X4.7Y-3.6
X1.6Y-3.2
X3.8Y-2.1
X3.8Y-1.6
X2.8Y-3.7
X2.9Y-3.7
X3.0Y-3.7
X3.1Y-3.7
X3.2Y-3.7
X1.0Y-3.7
X1.1Y-3.7
X1.2Y-3.7
X1.3Y-3.7
X1.4Y-3.7
X4.6Y-1.5
X3.0Y-0.3
X0.8Y-3.2
X2.5Y-3.4
X2.6Y-3.4
X2.9Y-0.6
X3.7Y-2.5
X3.7Y-2.1
X2.0Y-0.5
X3.5Y-2.5
X3.5Y-1.9
X3.8Y-3.7
X3.8Y-3.6
X0.4Y-3.7
X0.8Y-0.9
X1.2Y-2.1
X3.0Y-1.3
X0.7Y-3.4
X0.8Y-3.4
X1.4Y-2.9
X3.2Y-0.8
X3.2Y-0.7
X3.2Y-0.6
X3.2Y-0.5
X3.2Y-0.4
X3.2Y-0.3
X3.0Y-1.7
X3.1Y-1.7
X2.9Y-0.4
X2.6Y-3.1
X2.6Y-2.6
X2.7Y-3.1
X2.7Y-2.6
X2.8Y-3.1
X2.8Y-2.6
X2.9Y-3.1
X2.9Y-2.6
X3.0Y-3.1
X3.0Y-2.6
X3.1Y-3.1
X3.1Y-2.6
X3.2Y-3.1
X3.2Y-2.6
X3.3Y-3.1
X3.3Y-2.6
X4.1Y-3.7
X4.1Y-3.6
X3.3Y-2.0
X3.4Y-2.0
X3.6Y-1.9
X3.6Y-1.6
X1.9Y-3.7
X2.0Y-3.7
X2.1Y-3.7
X2.2Y-3.7
X2.3Y-3.7
X0.4Y-1.9
X4.9Y-1.9
X4.9Y-1.6
X1.2Y-1.7
X1.7Y-1.1
X1.6Y-3.4
X1.7Y-3.4
X1.4Y-1.4
X4.4Y-3.7
X4.4Y-3.6
X0.9Y-2.2
X0.9Y-2.1
X1.0Y-1.4
X1.7Y-3.1
X1.7Y-2.6
X1.8Y-3.1
X1.8Y-2.6
X1.9Y-3.1
X1.9Y-2.6
X2.0Y-3.1
X2.0Y-2.6
X2.1Y-3.1
X2.1Y-2.6
X2.2Y-3.1
X2.2Y-2.6
X2.3Y-3.1
X2.3Y-2.6
X2.4Y-3.1
X2.4Y-2.6
X1.4Y-0.3
X1.5Y-0.3
X1.6Y-0.3
X5.1Y-2.1
X5.2Y-2.1
X3.4Y-0.6
X3.4Y-0.3
X2.5Y-1.6
X1.6Y-0.9
X1.4Y-1.7
X1.4Y-0.8
X1.5Y-1.7
X1.5Y-0.8
X1.6Y-1.7
X1.6Y-0.8
X1.7Y-1.7
X1.7Y-0.8
X1.8Y-1.7
X1.8Y-0.8
X1.9Y-1.7
X1.9Y-0.8
X2.0Y-1.7
X2.0Y-0.8
X2.1Y-1.7
X2.1Y-0.8
X2.2Y-1.7
X2.2Y-0.8
X2.3Y-1.7
X2.3Y-0.8
X2.4Y-1.7
X2.4Y-0.8
X2.5Y-1.7
X2.5Y-0.8
X2.6Y-1.7
X2.6Y-0.8
X2.7Y-1.7
X2.7Y-0.8
X2.8Y-1.7
X2.8Y-0.8
X4.8Y-2.5
X4.8Y-2.1
X4.8Y-2.0
X4.8Y-1.6
X1.7Y-2.7
X4.1Y-2.4
X4.1Y-2.3
X4.1Y-2.2
X4.1Y-2.1
X4.1Y-2.0
X4.1Y-1.9
X4.1Y-1.8
X4.1Y-1.7
X4.4Y-2.4
X4.4Y-2.3
X4.4Y-2.2
X4.4Y-2.1
X4.4Y-2.0
X4.4Y-1.9
X4.4Y-1.8
X4.4Y-1.7
X3.6Y-2.5
X3.6Y-2.0
X0.8Y-2.7
X4.6Y-3.7
X4.6Y-3.6
X3.9Y-3.7
X3.9Y-3.6
X3.3Y-2.2
X3.4Y-2.2
X3.7Y-2.0
X3.7Y-1.6
X0.4Y-3.5
X2.6Y-1.6
X5.1Y-1.9
X5.2Y-1.9
X4.9Y-2.5
X4.9Y-2.0
X0.6Y-1.1
X1.2Y-0.9
X2.6Y-3.2
X3.3Y-1.9
X3.4Y-1.9
X1.6Y-2.7
X4.6Y-2.2
X4.6Y-1.6
X2.4Y-2.9
X0.6Y-2.1
X0.8Y-3.1
X0.8Y-2.6
X0.9Y-3.1
X0.9Y-2.6
X1.0Y-3.1
X1.0Y-2.6
X1.1Y-3.1
X1.1Y-2.6
X1.2Y-3.1
X1.2Y-2.6
X1.3Y-3.1
X1.3Y-2.6
X1.4Y-3.1
X1.4Y-2.6
X1.5Y-3.1
X1.5Y-2.6
X4.0Y-3.7
X4.0Y-3.6
X3.3Y-2.1
X3.4Y-2.1
X3.9Y-2.2
X3.9Y-1.6
X0.3Y-2.6
X0.4Y-1.8
X4.7Y-2.1
X4.7Y-1.6
X5.0Y-2.5
X5.0Y-1.9
X2.6Y-2.7
X5.1Y-2.0
X5.2Y-2.0
X2.2Y-0.6
X0.6Y-1.7
X3.8Y-2.5
X3.8Y-2.2
X1.7Y-3.2
X4.5Y-3.7
X4.5Y-3.6
X2.0Y-0.3
X2.1Y-0.3
X2.2Y-0.3
X2.3Y-0.3
X2.4Y-0.3
X2.5Y-0.3
X2.6Y-0.3
X2.7Y-0.3
X2.4Y-1.6
T0
M30
