%TF.GenerationSoftware,KiCad,Pcbnew,(5.1.6)-1*%
%TF.CreationDate,2022-03-05T10:06:30-05:00*%
%TF.ProjectId,controller,636f6e74-726f-46c6-9c65-722e6b696361,rev?*%
%TF.SameCoordinates,Original*%
%TF.FileFunction,Soldermask,Bot*%
%TF.FilePolarity,Negative*%
%FSLAX46Y46*%
G04 Gerber Fmt 4.6, Leading zero omitted, Abs format (unit mm)*
G04 Created by KiCad (PCBNEW (5.1.6)-1) date 2022-03-05 10:06:30*
%MOMM*%
%LPD*%
G01*
G04 APERTURE LIST*
%ADD10C,2.200000*%
%ADD11R,2.200000X2.200000*%
%ADD12C,5.100000*%
G04 APERTURE END LIST*
D10*
%TO.C,SW1*%
X10160000Y61540000D03*
X10160000Y66040000D03*
X10160000Y70540000D03*
X10922000Y70540000D03*
X9398000Y70540000D03*
X10922000Y66040000D03*
X9652000Y66040000D03*
X10922000Y61540000D03*
X9652000Y61540000D03*
%TD*%
%TO.C,J11*%
X13208000Y44069000D03*
X12192000Y44069000D03*
X11176000Y44069000D03*
X15240000Y47879000D03*
X15240000Y48895000D03*
X15240000Y49911000D03*
X9144000Y47879000D03*
X9144000Y48895000D03*
X9144000Y49911000D03*
%TD*%
%TO.C,R8*%
X106680000Y55880000D03*
X106680000Y63500000D03*
%TD*%
D11*
%TO.C,J15*%
X109220000Y86360000D03*
X109220000Y88900000D03*
%TD*%
%TO.C,U1*%
X45720000Y20320000D03*
X48260000Y20320000D03*
X50800000Y20320000D03*
X53340000Y20320000D03*
X55880000Y20320000D03*
X58420000Y20320000D03*
X60960000Y20320000D03*
X63500000Y20320000D03*
X66040000Y20320000D03*
X68580000Y20320000D03*
X71120000Y20320000D03*
X73660000Y20320000D03*
X76200000Y20320000D03*
X78740000Y20320000D03*
X81280000Y20320000D03*
X81280000Y45720000D03*
X78740000Y45720000D03*
X76200000Y45720000D03*
X73660000Y45720000D03*
X71120000Y45720000D03*
X68580000Y45720000D03*
X66040000Y45720000D03*
X63500000Y45720000D03*
X60960000Y45720000D03*
X58420000Y45720000D03*
X55880000Y45720000D03*
X53340000Y45720000D03*
X50800000Y45720000D03*
X48260000Y45720000D03*
X45720000Y45720000D03*
%TD*%
D10*
%TO.C,C1*%
X30480000Y83820000D03*
X27940000Y83820000D03*
%TD*%
%TO.C,C2*%
X50800000Y83820000D03*
X53340000Y83820000D03*
%TD*%
%TO.C,C4*%
X81280000Y53975000D03*
X81280000Y51435000D03*
%TD*%
%TO.C,C3*%
X76200000Y83820000D03*
X73660000Y83820000D03*
%TD*%
%TO.C,C6*%
X96520000Y48260000D03*
X93980000Y48260000D03*
%TD*%
%TO.C,C7*%
X93980000Y50800000D03*
X96520000Y50800000D03*
%TD*%
%TO.C,C8*%
X96520000Y53340000D03*
X93980000Y53340000D03*
%TD*%
%TO.C,C9*%
X93980000Y55880000D03*
X96520000Y55880000D03*
%TD*%
%TO.C,C10*%
X139700000Y55880000D03*
X142240000Y55880000D03*
%TD*%
%TO.C,C11*%
X142240000Y53340000D03*
X139700000Y53340000D03*
%TD*%
%TO.C,C12*%
X139700000Y50800000D03*
X142240000Y50800000D03*
%TD*%
%TO.C,C14*%
X142240000Y48260000D03*
X139700000Y48260000D03*
%TD*%
D11*
%TO.C,J8*%
X71120000Y43180000D03*
%TD*%
%TO.C,J9*%
X73660000Y43180000D03*
%TD*%
%TO.C,J10*%
X76200000Y43180000D03*
%TD*%
%TO.C,J14*%
X106680000Y88900000D03*
X106680000Y86360000D03*
%TD*%
%TO.C,J23*%
X53340000Y7620000D03*
X50800000Y7620000D03*
X48260000Y7620000D03*
%TD*%
%TO.C,J22*%
X78740000Y7620000D03*
X76200000Y7620000D03*
X73660000Y7620000D03*
X71120000Y7620000D03*
X68580000Y7620000D03*
X66040000Y7620000D03*
X63500000Y7620000D03*
X60960000Y7620000D03*
%TD*%
%TO.C,J16*%
X111760000Y88900000D03*
X111760000Y86360000D03*
%TD*%
%TO.C,J17*%
X114300000Y88900000D03*
X114300000Y86360000D03*
%TD*%
%TO.C,J18*%
X121920000Y88900000D03*
X121920000Y86360000D03*
%TD*%
%TO.C,J19*%
X124460000Y86360000D03*
X124460000Y88900000D03*
%TD*%
%TO.C,J20*%
X127000000Y86360000D03*
X127000000Y88900000D03*
%TD*%
%TO.C,J21*%
X129540000Y88900000D03*
X129540000Y86360000D03*
%TD*%
%TO.C,M1*%
X48260000Y63500000D03*
X45720000Y63500000D03*
X43180000Y63500000D03*
X40640000Y63500000D03*
X38100000Y63500000D03*
X35560000Y63500000D03*
X33020000Y63500000D03*
X30480000Y63500000D03*
X48260000Y76200000D03*
X45720000Y76200000D03*
X43180000Y76200000D03*
X40640000Y76200000D03*
X38100000Y76200000D03*
X35560000Y76200000D03*
X33020000Y76200000D03*
X30480000Y76200000D03*
%TD*%
%TO.C,M2*%
X71120000Y63500000D03*
X68580000Y63500000D03*
X66040000Y63500000D03*
X63500000Y63500000D03*
X60960000Y63500000D03*
X58420000Y63500000D03*
X55880000Y63500000D03*
X53340000Y63500000D03*
X71120000Y76200000D03*
X68580000Y76200000D03*
X66040000Y76200000D03*
X63500000Y76200000D03*
X60960000Y76200000D03*
X58420000Y76200000D03*
X55880000Y76200000D03*
X53340000Y76200000D03*
%TD*%
%TO.C,M3*%
X76200000Y76200000D03*
X78740000Y76200000D03*
X81280000Y76200000D03*
X83820000Y76200000D03*
X86360000Y76200000D03*
X88900000Y76200000D03*
X91440000Y76200000D03*
X93980000Y76200000D03*
X76200000Y63500000D03*
X78740000Y63500000D03*
X81280000Y63500000D03*
X83820000Y63500000D03*
X86360000Y63500000D03*
X88900000Y63500000D03*
X91440000Y63500000D03*
X93980000Y63500000D03*
%TD*%
%TO.C,M5*%
X91440000Y20320000D03*
X91440000Y17780000D03*
X91440000Y15240000D03*
X91440000Y12700000D03*
X91440000Y10160000D03*
X91440000Y7620000D03*
%TD*%
D10*
%TO.C,R11*%
X96520000Y7620000D03*
X96520000Y15240000D03*
%TD*%
%TO.C,R1*%
X101600000Y40640000D03*
X101600000Y48260000D03*
%TD*%
%TO.C,R2*%
X99060000Y48260000D03*
X99060000Y63500000D03*
%TD*%
%TO.C,R3*%
X104140000Y40640000D03*
X104140000Y50800000D03*
%TD*%
%TO.C,R4*%
X101600000Y50800000D03*
X101600000Y63500000D03*
%TD*%
%TO.C,R5*%
X106680000Y53340000D03*
X106680000Y40640000D03*
%TD*%
%TO.C,R6*%
X104140000Y53340000D03*
X104140000Y63500000D03*
%TD*%
%TO.C,R7*%
X109220000Y55880000D03*
X109220000Y40640000D03*
%TD*%
%TO.C,R9*%
X127000000Y40640000D03*
X127000000Y55880000D03*
%TD*%
%TO.C,R10*%
X129540000Y63500000D03*
X129540000Y55880000D03*
%TD*%
%TO.C,R12*%
X129540000Y40640000D03*
X129540000Y53340000D03*
%TD*%
%TO.C,R13*%
X132080000Y63500000D03*
X132080000Y53340000D03*
%TD*%
%TO.C,R14*%
X132080000Y50800000D03*
X132080000Y40640000D03*
%TD*%
%TO.C,R15*%
X134620000Y63500000D03*
X134620000Y50800000D03*
%TD*%
%TO.C,R16*%
X134620000Y48260000D03*
X134620000Y40640000D03*
%TD*%
%TO.C,R17*%
X137160000Y63500000D03*
X137160000Y48260000D03*
%TD*%
D11*
%TO.C,U2*%
X114300000Y60960000D03*
X121920000Y43180000D03*
X114300000Y58420000D03*
X121920000Y45720000D03*
X114300000Y55880000D03*
X121920000Y48260000D03*
X114300000Y53340000D03*
X121920000Y50800000D03*
X114300000Y50800000D03*
X121920000Y53340000D03*
X114300000Y48260000D03*
X121920000Y55880000D03*
X114300000Y45720000D03*
X121920000Y58420000D03*
X114300000Y43180000D03*
X121920000Y60960000D03*
%TD*%
D10*
%TO.C,C13*%
X124460000Y35560000D03*
X121920000Y35560000D03*
%TD*%
D11*
%TO.C,J1*%
X35560000Y88900000D03*
X38100000Y88900000D03*
X40640000Y88900000D03*
X43180000Y88900000D03*
%TD*%
%TO.C,J2*%
X66040000Y88900000D03*
X63500000Y88900000D03*
X60960000Y88900000D03*
X58420000Y88900000D03*
%TD*%
%TO.C,J3*%
X81280000Y88900000D03*
X83820000Y88900000D03*
X86360000Y88900000D03*
X88900000Y88900000D03*
%TD*%
D10*
%TO.C,J4*%
X11430000Y88900000D03*
X13970000Y88900000D03*
%TD*%
%TO.C,J5*%
X139700000Y22860000D03*
X139700000Y25400000D03*
%TD*%
%TO.C,J6*%
X19050000Y88900000D03*
X21590000Y88900000D03*
%TD*%
%TO.C,J7*%
X139700000Y30480000D03*
X139700000Y33020000D03*
%TD*%
%TO.C,M4*%
X25400000Y29210000D03*
X25400000Y13970000D03*
X16510000Y13970000D03*
X16510000Y29210000D03*
%TD*%
%TO.C,J24*%
X29210000Y7620000D03*
X26670000Y7620000D03*
%TD*%
%TO.C,J12*%
X10160000Y25400000D03*
%TD*%
%TO.C,J13*%
X10160000Y30480000D03*
%TD*%
%TO.C,J25*%
X10160000Y35560000D03*
%TD*%
%TO.C,J26*%
X10160000Y20320000D03*
%TD*%
%TO.C,C15*%
X40640000Y13970000D03*
X38100000Y13970000D03*
%TD*%
%TO.C,C5*%
X33020000Y54610000D03*
X27940000Y54610000D03*
%TD*%
D12*
X5080000Y83820000D03*
X5080000Y7620000D03*
X144780000Y7620000D03*
X144780000Y83820000D03*
D10*
X30480000Y73025000D03*
X50800000Y73025000D03*
X76200000Y73025000D03*
X53340000Y73025000D03*
X27940000Y76200000D03*
X20265000Y70540000D03*
X111760000Y40640000D03*
X45720000Y69850000D03*
X58420000Y69850000D03*
X71120000Y69850000D03*
X81280000Y69850000D03*
X124460000Y40640000D03*
X99060000Y40640000D03*
X85979000Y53975000D03*
X88900000Y43180000D03*
X88900000Y40640000D03*
X88900000Y27940000D03*
X86360000Y27940000D03*
X86360000Y7620000D03*
X41910000Y52070000D03*
X41910000Y27940000D03*
X31750000Y10160000D03*
X31750000Y27940000D03*
X38100000Y45720000D03*
X53340000Y12700000D03*
X61087000Y36195000D03*
X60960000Y22860000D03*
X53340000Y22860000D03*
X53340000Y31750000D03*
X13970000Y85090000D03*
X27235833Y38939990D03*
X53340000Y43180000D03*
X53340000Y36830000D03*
X21590000Y85090000D03*
X29210000Y43180000D03*
X76200000Y66040000D03*
X55880000Y66040000D03*
X53340000Y66040000D03*
X30480000Y66040000D03*
X66040000Y15240000D03*
X66040000Y15240000D03*
X83820000Y15240000D03*
X60960000Y12700000D03*
X83820000Y10160000D03*
X58674000Y39624000D03*
X58420000Y22860000D03*
M02*
