M48
; DRILL file {KiCad (5.1.6)-1} date 03/05/22 10:01:36
; FORMAT={-:-/ absolute / metric / decimal}
; #@! TF.CreationDate,2022-03-05T10:01:36-05:00
; #@! TF.GenerationSoftware,Kicad,Pcbnew,(5.1.6)-1
FMAT,2
METRIC
T1C0.900
T2C1.000
T3C5.000
%
G90
G05
T1
X13.97Y85.09
X20.265Y70.54
X21.59Y85.09
X27.236Y38.94
X27.94Y76.2
X29.21Y43.18
X30.48Y73.025
X30.48Y66.04
X31.75Y27.94
X31.75Y10.16
X38.1Y45.72
X41.91Y52.07
X41.91Y27.94
X45.72Y69.85
X50.8Y73.025
X53.34Y73.025
X53.34Y66.04
X53.34Y43.18
X53.34Y36.83
X53.34Y31.75
X53.34Y22.86
X53.34Y12.7
X55.88Y66.04
X58.42Y69.85
X58.42Y22.86
X58.674Y39.624
X60.96Y22.86
X60.96Y12.7
X61.087Y36.195
X66.04Y15.24
X66.04Y15.24
X71.12Y69.85
X76.2Y73.025
X76.2Y66.04
X81.28Y69.85
X83.82Y15.24
X83.82Y10.16
X85.979Y53.975
X86.36Y27.94
X86.36Y7.62
X88.9Y43.18
X88.9Y40.64
X88.9Y27.94
X99.06Y40.64
X111.76Y40.64
X124.46Y40.64
X132.08Y63.5
X132.08Y53.34
X76.2Y76.2
X76.2Y63.5
X78.74Y76.2
X78.74Y63.5
X81.28Y76.2
X81.28Y63.5
X83.82Y76.2
X83.82Y63.5
X86.36Y76.2
X86.36Y63.5
X88.9Y76.2
X88.9Y63.5
X91.44Y76.2
X91.44Y63.5
X93.98Y76.2
X93.98Y63.5
X93.98Y55.88
X96.52Y55.88
X93.98Y48.26
X96.52Y48.26
X139.7Y53.34
X142.24Y53.34
X127.0Y88.9
X127.0Y86.36
X106.68Y88.9
X106.68Y86.36
X109.22Y55.88
X109.22Y40.64
X132.08Y50.8
X132.08Y40.64
X134.62Y48.26
X134.62Y40.64
X106.68Y63.5
X106.68Y55.88
X81.28Y53.975
X81.28Y51.435
X45.72Y45.72
X45.72Y20.32
X48.26Y45.72
X48.26Y20.32
X50.8Y45.72
X50.8Y20.32
X53.34Y45.72
X53.34Y20.32
X55.88Y45.72
X55.88Y20.32
X58.42Y45.72
X58.42Y20.32
X60.96Y45.72
X60.96Y20.32
X63.5Y45.72
X63.5Y20.32
X66.04Y45.72
X66.04Y20.32
X68.58Y45.72
X68.58Y20.32
X71.12Y45.72
X71.12Y20.32
X73.66Y45.72
X73.66Y20.32
X76.2Y45.72
X76.2Y20.32
X78.74Y45.72
X78.74Y20.32
X81.28Y45.72
X81.28Y20.32
X73.66Y43.18
X124.46Y88.9
X124.46Y86.36
X76.2Y43.18
X27.94Y54.61
X33.02Y54.61
X137.16Y63.5
X137.16Y48.26
X129.54Y63.5
X129.54Y55.88
X129.54Y53.34
X129.54Y40.64
X71.12Y43.18
X139.7Y55.88
X142.24Y55.88
X139.7Y48.26
X142.24Y48.26
X121.92Y35.56
X124.46Y35.56
X104.14Y50.8
X104.14Y40.64
X101.6Y48.26
X101.6Y40.64
X106.68Y53.34
X106.68Y40.64
X73.66Y83.82
X76.2Y83.82
X111.76Y88.9
X111.76Y86.36
X121.92Y88.9
X121.92Y86.36
X91.44Y20.32
X91.44Y17.78
X91.44Y15.24
X91.44Y12.7
X91.44Y10.16
X91.44Y7.62
X104.14Y63.5
X104.14Y53.34
X96.52Y15.24
X96.52Y7.62
X109.22Y88.9
X109.22Y86.36
X50.8Y83.82
X53.34Y83.82
X129.54Y88.9
X129.54Y86.36
X114.3Y88.9
X114.3Y86.36
X99.06Y63.5
X99.06Y48.26
X38.1Y13.97
X40.64Y13.97
X101.6Y63.5
X101.6Y50.8
X93.98Y53.34
X96.52Y53.34
X27.94Y83.82
X30.48Y83.82
X53.34Y76.2
X53.34Y63.5
X55.88Y76.2
X55.88Y63.5
X58.42Y76.2
X58.42Y63.5
X60.96Y76.2
X60.96Y63.5
X63.5Y76.2
X63.5Y63.5
X66.04Y76.2
X66.04Y63.5
X68.58Y76.2
X68.58Y63.5
X71.12Y76.2
X71.12Y63.5
X134.62Y63.5
X134.62Y50.8
X127.0Y55.88
X127.0Y40.64
X93.98Y50.8
X96.52Y50.8
X30.48Y76.2
X30.48Y63.5
X33.02Y76.2
X33.02Y63.5
X35.56Y76.2
X35.56Y63.5
X38.1Y76.2
X38.1Y63.5
X40.64Y76.2
X40.64Y63.5
X43.18Y76.2
X43.18Y63.5
X45.72Y76.2
X45.72Y63.5
X48.26Y76.2
X48.26Y63.5
X139.7Y50.8
X142.24Y50.8
T2
X81.28Y88.9
X83.82Y88.9
X86.36Y88.9
X88.9Y88.9
X10.16Y20.32
X11.43Y88.9
X13.97Y88.9
X10.16Y35.56
X60.96Y7.62
X63.5Y7.62
X66.04Y7.62
X68.58Y7.62
X71.12Y7.62
X73.66Y7.62
X76.2Y7.62
X78.74Y7.62
X10.16Y30.48
X16.51Y29.21
X16.51Y13.97
X25.4Y29.21
X25.4Y13.97
X35.56Y88.9
X38.1Y88.9
X40.64Y88.9
X43.18Y88.9
X139.7Y33.02
X139.7Y30.48
X9.144Y49.911
X9.144Y48.895
X9.144Y47.879
X11.176Y44.069
X12.192Y44.069
X13.208Y44.069
X15.24Y49.911
X15.24Y48.895
X15.24Y47.879
X19.05Y88.9
X21.59Y88.9
X58.42Y88.9
X60.96Y88.9
X63.5Y88.9
X66.04Y88.9
X10.16Y25.4
X114.3Y60.96
X114.3Y58.42
X114.3Y55.88
X114.3Y53.34
X114.3Y50.8
X114.3Y48.26
X114.3Y45.72
X114.3Y43.18
X121.92Y60.96
X121.92Y58.42
X121.92Y55.88
X121.92Y53.34
X121.92Y50.8
X121.92Y48.26
X121.92Y45.72
X121.92Y43.18
X9.398Y70.54
X9.652Y66.04
X9.652Y61.54
X10.16Y70.54
X10.16Y66.04
X10.16Y61.54
X10.922Y70.54
X10.922Y66.04
X10.922Y61.54
X26.67Y7.62
X29.21Y7.62
X139.7Y25.4
X139.7Y22.86
X48.26Y7.62
X50.8Y7.62
X53.34Y7.62
T3
X5.08Y83.82
X5.08Y7.62
X144.78Y83.82
X144.78Y7.62
T0
M30
