%TF.GenerationSoftware,KiCad,Pcbnew,(5.1.6)-1*%
%TF.CreationDate,2022-03-25T10:42:17-05:00*%
%TF.ProjectId,controller,636f6e74-726f-46c6-9c65-722e6b696361,rev?*%
%TF.SameCoordinates,Original*%
%TF.FileFunction,Soldermask,Bot*%
%TF.FilePolarity,Negative*%
%FSLAX46Y46*%
G04 Gerber Fmt 4.6, Leading zero omitted, Abs format (unit mm)*
G04 Created by KiCad (PCBNEW (5.1.6)-1) date 2022-03-25 10:42:17*
%MOMM*%
%LPD*%
G01*
G04 APERTURE LIST*
%ADD10C,2.200000*%
%ADD11R,2.200000X2.200000*%
%ADD12C,3.200000*%
G04 APERTURE END LIST*
D10*
%TO.C,U4*%
X25400000Y43180000D03*
X27940000Y43180000D03*
X30480000Y43180000D03*
X33020000Y43180000D03*
X35560000Y43180000D03*
X38100000Y43180000D03*
X40640000Y43180000D03*
X43180000Y43180000D03*
X45720000Y43180000D03*
X48260000Y43180000D03*
X50800000Y43180000D03*
X53340000Y43180000D03*
X55880000Y43180000D03*
X58420000Y43180000D03*
X60960000Y43180000D03*
D11*
X60960000Y17780000D03*
X58420000Y17780000D03*
X55880000Y17780000D03*
X53340000Y17780000D03*
G36*
G01*
X49700000Y17230000D02*
X49700000Y18330000D01*
G75*
G02*
X50250000Y18880000I550000J0D01*
G01*
X51350000Y18880000D01*
G75*
G02*
X51900000Y18330000I0J-550000D01*
G01*
X51900000Y17230000D01*
G75*
G02*
X51350000Y16680000I-550000J0D01*
G01*
X50250000Y16680000D01*
G75*
G02*
X49700000Y17230000I0J550000D01*
G01*
G37*
D10*
X48260000Y17780000D03*
X45720000Y17780000D03*
X43180000Y17780000D03*
X40640000Y17780000D03*
X38100000Y17780000D03*
X35560000Y17780000D03*
X33020000Y17780000D03*
X30480000Y17780000D03*
X27940000Y17780000D03*
X25400000Y17780000D03*
%TD*%
%TO.C,C1*%
X68580000Y48260000D03*
X71120000Y48260000D03*
%TD*%
%TO.C,C2*%
X68580000Y50800000D03*
X71120000Y50800000D03*
%TD*%
%TO.C,C3*%
X71120000Y53340000D03*
X68580000Y53340000D03*
%TD*%
%TO.C,C4*%
X68580000Y55880000D03*
X71120000Y55880000D03*
%TD*%
%TO.C,C5*%
X109220000Y55880000D03*
X111760000Y55880000D03*
%TD*%
%TO.C,C6*%
X111760000Y53340000D03*
X109220000Y53340000D03*
%TD*%
%TO.C,C7*%
X109220000Y50800000D03*
X111760000Y50800000D03*
%TD*%
%TO.C,C8*%
X111760000Y48260000D03*
X109220000Y48260000D03*
%TD*%
%TO.C,C9*%
X58420000Y53340000D03*
X60960000Y53340000D03*
%TD*%
%TO.C,C10*%
X15240000Y58420000D03*
X20320000Y58420000D03*
%TD*%
%TO.C,C11*%
X96520000Y35560000D03*
X96520000Y38100000D03*
%TD*%
%TO.C,C12*%
X60960000Y49530000D03*
X60960000Y46990000D03*
%TD*%
%TO.C,C13*%
X83820000Y29210000D03*
X83820000Y26670000D03*
%TD*%
%TO.C,C14*%
X22860000Y17780000D03*
X20320000Y17780000D03*
%TD*%
%TO.C,J1*%
X5080000Y52070000D03*
X5080000Y46990000D03*
%TD*%
%TO.C,J2*%
X17780000Y76200000D03*
X20320000Y76200000D03*
X22860000Y76200000D03*
X25400000Y76200000D03*
%TD*%
%TO.C,J3*%
X38100000Y76200000D03*
X35560000Y76200000D03*
X33020000Y76200000D03*
X30480000Y76200000D03*
%TD*%
%TO.C,J4*%
X45720000Y76200000D03*
X48260000Y76200000D03*
X50800000Y76200000D03*
X53340000Y76200000D03*
%TD*%
%TO.C,J5*%
X66040000Y76200000D03*
X63500000Y76200000D03*
X60960000Y76200000D03*
X58420000Y76200000D03*
%TD*%
%TO.C,J6*%
X73660000Y73660000D03*
X73660000Y76200000D03*
%TD*%
%TO.C,J7*%
X76200000Y76200000D03*
X76200000Y73660000D03*
%TD*%
%TO.C,J8*%
X78740000Y73660000D03*
X78740000Y76200000D03*
%TD*%
%TO.C,J9*%
X81280000Y73660000D03*
X81280000Y76200000D03*
%TD*%
%TO.C,J10*%
X96520000Y73660000D03*
X96520000Y76200000D03*
%TD*%
%TO.C,J11*%
X99060000Y76200000D03*
X99060000Y73660000D03*
%TD*%
%TO.C,J12*%
X101600000Y76200000D03*
X101600000Y73660000D03*
%TD*%
%TO.C,J13*%
X104140000Y76200000D03*
X104140000Y73660000D03*
%TD*%
%TO.C,J14*%
X5080000Y17780000D03*
X5080000Y22860000D03*
%TD*%
%TO.C,J15*%
X13970000Y17780000D03*
X11430000Y17780000D03*
%TD*%
%TO.C,J16*%
X25400000Y46990000D03*
X22860000Y46990000D03*
%TD*%
D11*
%TO.C,J17*%
X78740000Y26670000D03*
D10*
X76200000Y26670000D03*
%TD*%
%TO.C,J18*%
X33020000Y5080000D03*
X30480000Y5080000D03*
X27940000Y5080000D03*
%TD*%
%TO.C,J19*%
X58420000Y5080000D03*
X55880000Y5080000D03*
X53340000Y5080000D03*
X50800000Y5080000D03*
X48260000Y5080000D03*
X45720000Y5080000D03*
X43180000Y5080000D03*
X40640000Y5080000D03*
%TD*%
%TO.C,J20*%
X111760000Y34290000D03*
X111760000Y36830000D03*
%TD*%
%TO.C,J22*%
X111760000Y27940000D03*
X111760000Y25400000D03*
%TD*%
%TO.C,M1*%
X16510000Y40640000D03*
X16510000Y25400000D03*
X7620000Y25400000D03*
X7620000Y40640000D03*
%TD*%
%TO.C,M2*%
X71120000Y20320000D03*
X71120000Y17780000D03*
X71120000Y15240000D03*
X71120000Y12700000D03*
X71120000Y10160000D03*
X71120000Y7620000D03*
%TD*%
%TO.C,R1*%
X76200000Y40640000D03*
X76200000Y48260000D03*
%TD*%
%TO.C,R2*%
X73660000Y48260000D03*
X73660000Y63500000D03*
%TD*%
%TO.C,R3*%
X78740000Y40640000D03*
X78740000Y50800000D03*
%TD*%
%TO.C,R4*%
X76200000Y63500000D03*
X76200000Y50800000D03*
%TD*%
%TO.C,R5*%
X81280000Y53340000D03*
X81280000Y40640000D03*
%TD*%
%TO.C,R6*%
X78740000Y63500000D03*
X78740000Y53340000D03*
%TD*%
%TO.C,R7*%
X83820000Y40640000D03*
X83820000Y55880000D03*
%TD*%
%TO.C,R8*%
X81280000Y55880000D03*
X81280000Y63500000D03*
%TD*%
%TO.C,R9*%
X96520000Y55880000D03*
X96520000Y40640000D03*
%TD*%
%TO.C,R10*%
X99060000Y63500000D03*
X99060000Y55880000D03*
%TD*%
%TO.C,R11*%
X99060000Y40640000D03*
X99060000Y53340000D03*
%TD*%
%TO.C,R12*%
X101600000Y53340000D03*
X101600000Y63500000D03*
%TD*%
%TO.C,R13*%
X101600000Y50800000D03*
X101600000Y40640000D03*
%TD*%
%TO.C,R14*%
X104140000Y50800000D03*
X104140000Y63500000D03*
%TD*%
%TO.C,R15*%
X104140000Y48260000D03*
X104140000Y40640000D03*
%TD*%
%TO.C,R16*%
X106680000Y63500000D03*
X106680000Y48260000D03*
%TD*%
%TO.C,R17*%
X33020000Y48260000D03*
X40640000Y48260000D03*
%TD*%
%TO.C,R18*%
X76200000Y7620000D03*
X76200000Y15240000D03*
%TD*%
%TO.C,SW1*%
X4572000Y58310000D03*
X5842000Y58310000D03*
X4572000Y62810000D03*
X5842000Y62810000D03*
X4318000Y67310000D03*
X5842000Y67310000D03*
X5080000Y67310000D03*
X5080000Y62810000D03*
X5080000Y58310000D03*
%TD*%
%TO.C,U1*%
X53340000Y60960000D03*
X35560000Y53340000D03*
X50800000Y60960000D03*
X38100000Y53340000D03*
X48260000Y60960000D03*
X40640000Y53340000D03*
X45720000Y60960000D03*
X43180000Y53340000D03*
X43180000Y60960000D03*
X45720000Y53340000D03*
X40640000Y60960000D03*
X48260000Y53340000D03*
X38100000Y60960000D03*
X50800000Y53340000D03*
X35560000Y60960000D03*
G36*
G01*
X52790000Y54440000D02*
X53890000Y54440000D01*
G75*
G02*
X54440000Y53890000I0J-550000D01*
G01*
X54440000Y52790000D01*
G75*
G02*
X53890000Y52240000I-550000J0D01*
G01*
X52790000Y52240000D01*
G75*
G02*
X52240000Y52790000I0J550000D01*
G01*
X52240000Y53890000D01*
G75*
G02*
X52790000Y54440000I550000J0D01*
G01*
G37*
%TD*%
%TO.C,U2*%
X93980000Y60960000D03*
D11*
X86360000Y43180000D03*
D10*
X93980000Y58420000D03*
D11*
X86360000Y45720000D03*
D10*
X93980000Y55880000D03*
D11*
X86360000Y48260000D03*
D10*
X93980000Y53340000D03*
D11*
X86360000Y50800000D03*
D10*
X93980000Y50800000D03*
D11*
X86360000Y53340000D03*
D10*
X93980000Y48260000D03*
D11*
X86360000Y55880000D03*
D10*
X93980000Y45720000D03*
D11*
X86360000Y58420000D03*
D10*
X93980000Y43180000D03*
D11*
X86360000Y60960000D03*
%TD*%
D10*
%TO.C,U3*%
X99060000Y24130000D03*
X99060000Y26670000D03*
X99060000Y29210000D03*
%TD*%
D11*
%TO.C,J21*%
X91440000Y24130000D03*
X93980000Y24130000D03*
%TD*%
%TO.C,J23*%
X91440000Y26670000D03*
X93980000Y26670000D03*
%TD*%
D10*
%TO.C,J24*%
X17780000Y46990000D03*
X15240000Y46990000D03*
%TD*%
D12*
X5080000Y5080000D03*
X5080000Y76200000D03*
X111760000Y76200000D03*
X111760000Y5080000D03*
X88900000Y76200000D03*
D10*
X86360000Y40640000D03*
X94119999Y40640000D03*
X68580000Y7620000D03*
X68580000Y26670000D03*
X71120000Y40640000D03*
X71120000Y26670000D03*
X64770000Y40640000D03*
X38100000Y50800000D03*
X53340000Y50800000D03*
X64770000Y50800000D03*
X55880000Y71120000D03*
X45720000Y71120000D03*
X27940000Y71120000D03*
X17780000Y71120000D03*
X58420000Y71120000D03*
X30480000Y71120000D03*
X43250711Y71120000D03*
X55880000Y53340000D03*
X20320000Y7620000D03*
X33020000Y7620000D03*
X33020000Y7620000D03*
X40640000Y7620000D03*
X20320000Y22860000D03*
X20320000Y40640000D03*
X88900000Y5080000D03*
X60960000Y7620000D03*
X88900000Y21590000D03*
X33089990Y34220010D03*
X33020000Y20320000D03*
X38100000Y31115000D03*
X38100000Y20320000D03*
X38100000Y66040000D03*
X22860000Y66040000D03*
X40640000Y63500000D03*
X25400000Y63500000D03*
X30480000Y45720000D03*
X55880000Y68580000D03*
X48260000Y68580000D03*
X33020000Y68580000D03*
X30480000Y68580000D03*
X20320000Y68580000D03*
X30480000Y60960000D03*
X45720000Y68580000D03*
X66040000Y64770000D03*
X58420000Y55880000D03*
X58420000Y60960000D03*
X63500000Y67310000D03*
X45720000Y15240000D03*
X63500000Y15240000D03*
X63500000Y10160000D03*
X40640000Y10160000D03*
X48260000Y40640000D03*
X48323500Y36068000D03*
X58420000Y40640000D03*
X62293500Y37211000D03*
X40640000Y31115000D03*
X40640000Y20320000D03*
X35560000Y40640000D03*
X35560000Y45720000D03*
X38100000Y40640000D03*
X38100000Y45720000D03*
X50800000Y40640000D03*
X50800000Y45720000D03*
X53340000Y40640000D03*
X53340000Y45720000D03*
X55880000Y40640000D03*
X55880000Y45720000D03*
X33020000Y40640000D03*
X33020000Y45720000D03*
M02*
