M48
; DRILL file {KiCad (5.1.6)-1} date 03/25/22 10:44:24
; FORMAT={-:-/ absolute / metric / decimal}
; #@! TF.CreationDate,2022-03-25T10:44:24-05:00
; #@! TF.GenerationSoftware,Kicad,Pcbnew,(5.1.6)-1
FMAT,2
METRIC
T1C0.900
T2C1.000
T3C3.100
%
G90
G05
T1
X88.9Y5.08
X20.32Y7.62
X33.02Y7.62
X33.02Y7.62
X40.64Y7.62
X60.96Y7.62
X68.58Y7.62
X71.12Y7.62
X76.2Y7.62
X71.12Y10.16
X63.5Y10.16
X40.64Y10.16
X71.12Y12.7
X76.2Y15.24
X71.12Y15.24
X63.5Y15.24
X45.72Y15.24
X20.32Y17.78
X22.86Y17.78
X25.4Y17.78
X27.94Y17.78
X30.48Y17.78
X33.02Y17.78
X35.56Y17.78
X38.1Y17.78
X40.64Y17.78
X43.18Y17.78
X45.72Y17.78
X48.26Y17.78
X50.8Y17.78
X53.34Y17.78
X55.88Y17.78
X58.42Y17.78
X60.96Y17.78
X71.12Y17.78
X71.12Y20.32
X40.64Y20.32
X38.1Y20.32
X33.02Y20.32
X88.9Y21.59
X20.32Y22.86
X68.58Y26.67
X71.12Y26.67
X76.2Y26.67
X83.82Y26.67
X83.82Y29.21
X38.1Y31.115
X40.64Y31.115
X33.09Y34.22
X96.52Y35.56
X48.323Y36.068
X62.293Y37.211
X96.52Y38.1
X20.32Y40.64
X33.02Y40.64
X35.56Y40.64
X38.1Y40.64
X48.26Y40.64
X50.8Y40.64
X53.34Y40.64
X55.88Y40.64
X58.42Y40.64
X64.77Y40.64
X71.12Y40.64
X76.2Y40.64
X78.74Y40.64
X81.28Y40.64
X83.82Y40.64
X86.36Y40.64
X94.12Y40.64
X96.52Y40.64
X99.06Y40.64
X101.6Y40.64
X104.14Y40.64
X93.98Y43.18
X86.36Y43.18
X60.96Y43.18
X58.42Y43.18
X55.88Y43.18
X53.34Y43.18
X50.8Y43.18
X48.26Y43.18
X45.72Y43.18
X43.18Y43.18
X40.64Y43.18
X38.1Y43.18
X35.56Y43.18
X33.02Y43.18
X30.48Y43.18
X27.94Y43.18
X25.4Y43.18
X30.48Y45.72
X33.02Y45.72
X35.56Y45.72
X38.1Y45.72
X50.8Y45.72
X53.34Y45.72
X55.88Y45.72
X86.36Y45.72
X93.98Y45.72
X60.96Y46.99
X33.02Y48.26
X40.64Y48.26
X68.58Y48.26
X71.12Y48.26
X73.66Y48.26
X76.2Y48.26
X86.36Y48.26
X93.98Y48.26
X104.14Y48.26
X106.68Y48.26
X109.22Y48.26
X111.76Y48.26
X60.96Y49.53
X38.1Y50.8
X53.34Y50.8
X64.77Y50.8
X68.58Y50.8
X71.12Y50.8
X76.2Y50.8
X78.74Y50.8
X86.36Y50.8
X93.98Y50.8
X101.6Y50.8
X104.14Y50.8
X109.22Y50.8
X111.76Y50.8
X111.76Y53.34
X109.22Y53.34
X101.6Y53.34
X99.06Y53.34
X93.98Y53.34
X86.36Y53.34
X81.28Y53.34
X78.74Y53.34
X71.12Y53.34
X68.58Y53.34
X60.96Y53.34
X58.42Y53.34
X55.88Y53.34
X53.34Y53.34
X50.8Y53.34
X48.26Y53.34
X45.72Y53.34
X43.18Y53.34
X40.64Y53.34
X38.1Y53.34
X35.56Y53.34
X58.42Y55.88
X68.58Y55.88
X71.12Y55.88
X81.28Y55.88
X83.82Y55.88
X86.36Y55.88
X93.98Y55.88
X96.52Y55.88
X99.06Y55.88
X109.22Y55.88
X111.76Y55.88
X93.98Y58.42
X86.36Y58.42
X20.32Y58.42
X15.24Y58.42
X30.48Y60.96
X35.56Y60.96
X38.1Y60.96
X40.64Y60.96
X43.18Y60.96
X45.72Y60.96
X48.26Y60.96
X50.8Y60.96
X53.34Y60.96
X58.42Y60.96
X86.36Y60.96
X93.98Y60.96
X106.68Y63.5
X104.14Y63.5
X101.6Y63.5
X99.06Y63.5
X81.28Y63.5
X78.74Y63.5
X76.2Y63.5
X73.66Y63.5
X40.64Y63.5
X25.4Y63.5
X66.04Y64.77
X38.1Y66.04
X22.86Y66.04
X63.5Y67.31
X55.88Y68.58
X48.26Y68.58
X45.72Y68.58
X33.02Y68.58
X30.48Y68.58
X20.32Y68.58
X17.78Y71.12
X27.94Y71.12
X30.48Y71.12
X43.251Y71.12
X45.72Y71.12
X55.88Y71.12
X58.42Y71.12
X104.14Y73.66
X101.6Y73.66
X99.06Y73.66
X96.52Y73.66
X81.28Y73.66
X78.74Y73.66
X76.2Y73.66
X73.66Y73.66
X73.66Y76.2
X76.2Y76.2
X78.74Y76.2
X81.28Y76.2
X96.52Y76.2
X99.06Y76.2
X101.6Y76.2
X104.14Y76.2
T2
X58.42Y5.08
X55.88Y5.08
X53.34Y5.08
X50.8Y5.08
X48.26Y5.08
X45.72Y5.08
X43.18Y5.08
X40.64Y5.08
X33.02Y5.08
X30.48Y5.08
X27.94Y5.08
X5.08Y17.78
X11.43Y17.78
X13.97Y17.78
X5.08Y22.86
X91.44Y24.13
X93.98Y24.13
X99.06Y24.13
X111.76Y25.4
X16.51Y25.4
X7.62Y25.4
X78.74Y26.67
X91.44Y26.67
X93.98Y26.67
X99.06Y26.67
X111.76Y27.94
X99.06Y29.21
X111.76Y34.29
X111.76Y36.83
X16.51Y40.64
X7.62Y40.64
X5.08Y46.99
X15.24Y46.99
X17.78Y46.99
X22.86Y46.99
X25.4Y46.99
X5.08Y52.07
X4.572Y58.31
X5.08Y58.31
X5.842Y58.31
X5.842Y62.81
X5.08Y62.81
X4.572Y62.81
X4.318Y67.31
X5.08Y67.31
X5.842Y67.31
X66.04Y76.2
X63.5Y76.2
X60.96Y76.2
X58.42Y76.2
X53.34Y76.2
X50.8Y76.2
X48.26Y76.2
X45.72Y76.2
X38.1Y76.2
X35.56Y76.2
X33.02Y76.2
X30.48Y76.2
X25.4Y76.2
X22.86Y76.2
X20.32Y76.2
X17.78Y76.2
T3
X5.08Y5.08
X111.76Y5.08
X111.76Y76.2
X88.9Y76.2
X5.08Y76.2
T0
M30
