M48
; DRILL file {KiCad (5.1.6)-1} date 09/30/21 19:03:22
; FORMAT={-:-/ absolute / inch / decimal}
; #@! TF.CreationDate,2021-09-30T19:03:22-05:00
; #@! TF.GenerationSoftware,Kicad,Pcbnew,(5.1.6)-1
FMAT,2
INCH
T1C0.0315
T2C0.0394
%
G90
G05
T1
X1.4Y-1.8
X1.6Y-0.6
X1.4Y-1.5
X1.8Y-1.8
X1.4Y-1.6
X1.8Y-2.0
X0.2Y-1.1
X0.2Y-1.0
X0.2Y-0.9
X1.4Y-1.7
X0.8Y-1.15
X0.8Y-0.8
X1.4Y-1.15
X1.4Y-0.8
X1.8Y-0.1
X0.3809Y-2.02
X1.8Y-0.2
X1.7Y-0.9
X0.5809Y-2.02
X1.6Y-0.5
T2
G00X1.0638Y-0.4394
M15
G01X1.0638Y-0.3606
M16
G05
G00X1.1425Y-0.215
M15
G01X1.2213Y-0.215
M16
G05
G00X1.3Y-0.4394
M15
G01X1.3Y-0.3606
M16
G05
T0
M30
