M48
; DRILL file {KiCad (5.1.6)-1} date 03/03/22 14:10:15
; FORMAT={-:-/ absolute / metric / decimal}
; #@! TF.CreationDate,2022-03-03T14:10:15-05:00
; #@! TF.GenerationSoftware,Kicad,Pcbnew,(5.1.6)-1
FMAT,2
METRIC
T1C0.800
%
G90
G05
T1
X2.54Y27.94
X8.89Y15.24
X6.35Y20.32
X2.54Y22.86
X6.35Y22.86
X2.54Y15.24
X2.54Y5.08
X11.43Y25.4
X15.24Y35.56
X15.24Y33.02
X15.24Y30.48
X15.24Y27.94
X15.24Y25.4
X15.24Y22.86
X15.24Y20.32
X15.24Y17.78
X15.24Y15.24
X15.24Y12.7
X15.24Y10.16
X15.24Y7.62
X15.24Y5.08
X15.24Y2.54
X8.89Y10.16
X8.89Y2.54
X2.54Y17.78
X6.35Y10.16
X2.54Y7.62
X11.43Y17.78
X2.54Y2.54
X2.54Y12.7
X11.43Y10.16
X11.43Y2.54
X8.89Y30.48
X6.35Y33.02
T0
M30
