%TF.GenerationSoftware,KiCad,Pcbnew,(5.1.6)-1*%
%TF.CreationDate,2022-03-03T14:21:22-05:00*%
%TF.ProjectId,lcd_connector,6c63645f-636f-46e6-9e65-63746f722e6b,rev?*%
%TF.SameCoordinates,Original*%
%TF.FileFunction,Copper,L2,Bot*%
%TF.FilePolarity,Positive*%
%FSLAX46Y46*%
G04 Gerber Fmt 4.6, Leading zero omitted, Abs format (unit mm)*
G04 Created by KiCad (PCBNEW (5.1.6)-1) date 2022-03-03 14:21:22*
%MOMM*%
%LPD*%
G01*
G04 APERTURE LIST*
%TA.AperFunction,ComponentPad*%
%ADD10C,2.200000*%
%TD*%
%TA.AperFunction,Conductor*%
%ADD11C,2.200000*%
%TD*%
%TA.AperFunction,Conductor*%
%ADD12C,0.300000*%
%TD*%
G04 APERTURE END LIST*
D10*
%TO.P,R1,2*%
%TO.N,Net-(M1-Pad8)*%
X8890000Y10160000D03*
%TO.P,R1,1*%
%TO.N,Net-(J1-Pad1)*%
X8890000Y2540000D03*
%TD*%
%TO.P,R2,1*%
%TO.N,Net-(J1-Pad1)*%
X11430000Y2540000D03*
%TO.P,R2,2*%
%TO.N,Net-(M1-Pad4)*%
X11430000Y10160000D03*
%TD*%
%TO.P,M1,1*%
%TO.N,Net-(J1-Pad1)*%
X15240000Y2540000D03*
%TO.P,M1,2*%
%TO.N,Net-(J8-Pad1)*%
X15240000Y5080000D03*
%TO.P,M1,3*%
%TO.N,Net-(J6-Pad1)*%
X15240000Y7620000D03*
%TO.P,M1,4*%
%TO.N,Net-(M1-Pad4)*%
X15240000Y10160000D03*
%TO.P,M1,5*%
%TO.N,Net-(J5-Pad1)*%
X15240000Y12700000D03*
%TO.P,M1,6*%
%TO.N,Net-(J7-Pad1)*%
X15240000Y15240000D03*
%TO.P,M1,7*%
%TO.N,Net-(J3-Pad1)*%
X15240000Y17780000D03*
%TO.P,M1,8*%
%TO.N,Net-(M1-Pad8)*%
X15240000Y20320000D03*
%TO.P,M1,9*%
%TO.N,Net-(J4-Pad1)*%
X15240000Y22860000D03*
%TO.P,M1,10*%
%TO.N,Net-(J3-Pad1)*%
X15240000Y25400000D03*
%TO.P,M1,11*%
%TO.N,Net-(J2-Pad1)*%
X15240000Y27940000D03*
%TO.P,M1,12*%
%TO.N,Net-(J7-Pad1)*%
X15240000Y30480000D03*
%TO.P,M1,13*%
%TO.N,Net-(J4-Pad1)*%
X15240000Y33020000D03*
%TO.P,M1,14*%
%TO.N,Net-(M1-Pad14)*%
X15240000Y35560000D03*
%TD*%
%TO.P,J1,1*%
%TO.N,Net-(J1-Pad1)*%
X2540000Y2540000D03*
%TD*%
%TO.P,J2,1*%
%TO.N,Net-(J2-Pad1)*%
X2540000Y27940000D03*
%TD*%
%TO.P,J3,1*%
%TO.N,Net-(J3-Pad1)*%
X2540000Y17780000D03*
%TD*%
%TO.P,J4,1*%
%TO.N,Net-(J4-Pad1)*%
X2540000Y22860000D03*
%TD*%
%TO.P,J5,1*%
%TO.N,Net-(J5-Pad1)*%
X2540000Y12700000D03*
%TD*%
%TO.P,J6,1*%
%TO.N,Net-(J6-Pad1)*%
X2540000Y7620000D03*
%TD*%
%TO.P,J7,1*%
%TO.N,Net-(J7-Pad1)*%
X2540000Y15240000D03*
%TD*%
%TO.P,J8,1*%
%TO.N,Net-(J8-Pad1)*%
X2540000Y5080000D03*
%TD*%
%TO.P,V1,1*%
%TO.N,Net-(M1-Pad8)*%
X6350000Y20320000D03*
%TD*%
%TO.P,V2,1*%
%TO.N,Net-(M1-Pad8)*%
X6350000Y10160000D03*
%TD*%
%TO.P,V3,1*%
%TO.N,Net-(J3-Pad1)*%
X11430000Y25400000D03*
%TD*%
%TO.P,V5,1*%
%TO.N,Net-(J3-Pad1)*%
X11430000Y17780000D03*
%TD*%
%TO.P,V6,1*%
%TO.N,Net-(J4-Pad1)*%
X6350000Y22860000D03*
%TD*%
%TO.P,V7,1*%
%TO.N,Net-(J7-Pad1)*%
X8890000Y15240000D03*
%TD*%
%TO.P,V8,1*%
%TO.N,Net-(J4-Pad1)*%
X6350000Y33020000D03*
%TD*%
%TO.P,V9,1*%
%TO.N,Net-(J7-Pad1)*%
X8890000Y30480000D03*
%TD*%
D11*
%TO.N,Net-(J1-Pad1)*%
X15240000Y2540000D02*
X2540000Y2540000D01*
%TO.N,Net-(M1-Pad4)*%
X15240000Y10160000D02*
X11430000Y10160000D01*
%TO.N,Net-(M1-Pad8)*%
X8890000Y10160000D02*
X6350000Y10160000D01*
X6350000Y20320000D02*
X15240000Y20320000D01*
%TO.N,Net-(J2-Pad1)*%
X2540000Y27940000D02*
X15240000Y27940000D01*
%TO.N,Net-(J3-Pad1)*%
X2540000Y17780000D02*
X15240000Y17780000D01*
X11430000Y25400000D02*
X15240000Y25400000D01*
%TO.N,Net-(J4-Pad1)*%
X2540000Y22860000D02*
X15240000Y22860000D01*
X6350000Y33020000D02*
X15240000Y33020000D01*
%TO.N,Net-(J5-Pad1)*%
X2540000Y12700000D02*
X15240000Y12700000D01*
%TO.N,Net-(J6-Pad1)*%
X15240000Y7620000D02*
X2540000Y7620000D01*
%TO.N,Net-(J7-Pad1)*%
X2540000Y15240000D02*
X15240000Y15240000D01*
X8890000Y30480000D02*
X15240000Y30480000D01*
%TD*%
D12*
%TO.N,Net-(J8-Pad1)*%
G36*
X17097001Y683000D02*
G01*
X683000Y683000D01*
X683000Y2540000D01*
X773494Y2540000D01*
X782000Y2453637D01*
X782000Y2366852D01*
X798931Y2281734D01*
X807437Y2195372D01*
X832628Y2112328D01*
X849559Y2027210D01*
X882769Y1947034D01*
X907961Y1863987D01*
X948872Y1787448D01*
X982081Y1707275D01*
X1030294Y1635118D01*
X1071204Y1558582D01*
X1126255Y1491503D01*
X1174472Y1419340D01*
X1235844Y1357968D01*
X1290892Y1290892D01*
X1357968Y1235844D01*
X1419340Y1174472D01*
X1491503Y1126255D01*
X1558582Y1071204D01*
X1635118Y1030294D01*
X1707275Y982081D01*
X1787448Y948872D01*
X1863987Y907961D01*
X1947034Y882769D01*
X2027210Y849559D01*
X2112328Y832628D01*
X2195372Y807437D01*
X2281734Y798931D01*
X2366852Y782000D01*
X15413148Y782000D01*
X15498266Y798931D01*
X15584628Y807437D01*
X15667672Y832628D01*
X15752790Y849559D01*
X15832966Y882769D01*
X15916013Y907961D01*
X15992552Y948872D01*
X16072725Y982081D01*
X16144882Y1030294D01*
X16221418Y1071204D01*
X16288497Y1126255D01*
X16360660Y1174472D01*
X16422032Y1235844D01*
X16489108Y1290892D01*
X16544156Y1357968D01*
X16605528Y1419340D01*
X16653745Y1491503D01*
X16708796Y1558582D01*
X16749706Y1635118D01*
X16797919Y1707275D01*
X16831128Y1787448D01*
X16872039Y1863987D01*
X16897231Y1947034D01*
X16930441Y2027210D01*
X16947372Y2112328D01*
X16972563Y2195372D01*
X16981069Y2281734D01*
X16998000Y2366852D01*
X16998000Y2453637D01*
X17006506Y2540000D01*
X16998000Y2626363D01*
X16998000Y2713148D01*
X16981069Y2798266D01*
X16972563Y2884628D01*
X16947372Y2967672D01*
X16930441Y3052790D01*
X16897231Y3132966D01*
X16872039Y3216013D01*
X16831128Y3292552D01*
X16797919Y3372725D01*
X16749706Y3444882D01*
X16708796Y3521418D01*
X16653745Y3588497D01*
X16605528Y3660660D01*
X16544156Y3722032D01*
X16489108Y3789108D01*
X16422032Y3844156D01*
X16360660Y3905528D01*
X16288497Y3953745D01*
X16221418Y4008796D01*
X16144882Y4049706D01*
X16072725Y4097919D01*
X15992552Y4131128D01*
X15916013Y4172039D01*
X15832966Y4197231D01*
X15752790Y4230441D01*
X15667672Y4247372D01*
X15584628Y4272563D01*
X15498266Y4281069D01*
X15413148Y4298000D01*
X2366852Y4298000D01*
X2281734Y4281069D01*
X2195372Y4272563D01*
X2112328Y4247372D01*
X2027210Y4230441D01*
X1947034Y4197231D01*
X1863987Y4172039D01*
X1787448Y4131128D01*
X1707275Y4097919D01*
X1635118Y4049706D01*
X1558582Y4008796D01*
X1491503Y3953745D01*
X1419340Y3905528D01*
X1357968Y3844156D01*
X1290892Y3789108D01*
X1235844Y3722032D01*
X1174472Y3660660D01*
X1126255Y3588497D01*
X1071204Y3521418D01*
X1030294Y3444882D01*
X982081Y3372725D01*
X948872Y3292552D01*
X907961Y3216013D01*
X882769Y3132966D01*
X849559Y3052790D01*
X832628Y2967672D01*
X807437Y2884628D01*
X798931Y2798266D01*
X782000Y2713148D01*
X782000Y2626363D01*
X773494Y2540000D01*
X683000Y2540000D01*
X683000Y27940000D01*
X773494Y27940000D01*
X782000Y27853637D01*
X782000Y27766852D01*
X798931Y27681734D01*
X807437Y27595372D01*
X832628Y27512328D01*
X849559Y27427210D01*
X882769Y27347034D01*
X907961Y27263987D01*
X948872Y27187448D01*
X982081Y27107275D01*
X1030294Y27035118D01*
X1071204Y26958582D01*
X1126255Y26891503D01*
X1174472Y26819340D01*
X1235844Y26757968D01*
X1290892Y26690892D01*
X1357968Y26635844D01*
X1419340Y26574472D01*
X1491503Y26526255D01*
X1558582Y26471204D01*
X1635118Y26430294D01*
X1707275Y26382081D01*
X1787448Y26348872D01*
X1863987Y26307961D01*
X1947034Y26282769D01*
X2027210Y26249559D01*
X2112328Y26232628D01*
X2195372Y26207437D01*
X2281734Y26198931D01*
X2366852Y26182000D01*
X9851070Y26182000D01*
X9838872Y26152552D01*
X9797961Y26076013D01*
X9772769Y25992966D01*
X9739559Y25912790D01*
X9722628Y25827672D01*
X9697437Y25744628D01*
X9688931Y25658266D01*
X9672000Y25573148D01*
X9672000Y25486363D01*
X9663494Y25400000D01*
X9672000Y25313637D01*
X9672000Y25226852D01*
X9688931Y25141734D01*
X9697437Y25055372D01*
X9722628Y24972328D01*
X9739559Y24887210D01*
X9772769Y24807034D01*
X9797961Y24723987D01*
X9838872Y24647448D01*
X9851070Y24618000D01*
X2366852Y24618000D01*
X2281734Y24601069D01*
X2195372Y24592563D01*
X2112328Y24567372D01*
X2027210Y24550441D01*
X1947034Y24517231D01*
X1863987Y24492039D01*
X1787448Y24451128D01*
X1707275Y24417919D01*
X1635118Y24369706D01*
X1558582Y24328796D01*
X1491503Y24273745D01*
X1419340Y24225528D01*
X1357968Y24164156D01*
X1290892Y24109108D01*
X1235844Y24042032D01*
X1174472Y23980660D01*
X1126255Y23908497D01*
X1071204Y23841418D01*
X1030294Y23764882D01*
X982081Y23692725D01*
X948872Y23612552D01*
X907961Y23536013D01*
X882769Y23452966D01*
X849559Y23372790D01*
X832628Y23287672D01*
X807437Y23204628D01*
X798931Y23118266D01*
X782000Y23033148D01*
X782000Y22946363D01*
X773494Y22860000D01*
X782000Y22773637D01*
X782000Y22686852D01*
X798931Y22601734D01*
X807437Y22515372D01*
X832628Y22432328D01*
X849559Y22347210D01*
X882769Y22267034D01*
X907961Y22183987D01*
X948872Y22107448D01*
X982081Y22027275D01*
X1030294Y21955118D01*
X1071204Y21878582D01*
X1126255Y21811503D01*
X1174472Y21739340D01*
X1235844Y21677968D01*
X1290892Y21610892D01*
X1357968Y21555844D01*
X1419340Y21494472D01*
X1491503Y21446255D01*
X1558582Y21391204D01*
X1635118Y21350294D01*
X1707275Y21302081D01*
X1787448Y21268872D01*
X1863987Y21227961D01*
X1947034Y21202769D01*
X2027210Y21169559D01*
X2112328Y21152628D01*
X2195372Y21127437D01*
X2281734Y21118931D01*
X2366852Y21102000D01*
X4771070Y21102000D01*
X4758872Y21072552D01*
X4717961Y20996013D01*
X4692769Y20912966D01*
X4659559Y20832790D01*
X4642628Y20747672D01*
X4617437Y20664628D01*
X4608931Y20578266D01*
X4592000Y20493148D01*
X4592000Y20406363D01*
X4583494Y20320000D01*
X4592000Y20233637D01*
X4592000Y20146852D01*
X4608931Y20061734D01*
X4617437Y19975372D01*
X4642628Y19892328D01*
X4659559Y19807210D01*
X4692769Y19727034D01*
X4717961Y19643987D01*
X4758872Y19567448D01*
X4771070Y19538000D01*
X2366852Y19538000D01*
X2281734Y19521069D01*
X2195372Y19512563D01*
X2112328Y19487372D01*
X2027210Y19470441D01*
X1947034Y19437231D01*
X1863987Y19412039D01*
X1787448Y19371128D01*
X1707275Y19337919D01*
X1635118Y19289706D01*
X1558582Y19248796D01*
X1491503Y19193745D01*
X1419340Y19145528D01*
X1357968Y19084156D01*
X1290892Y19029108D01*
X1235844Y18962032D01*
X1174472Y18900660D01*
X1126255Y18828497D01*
X1071204Y18761418D01*
X1030294Y18684882D01*
X982081Y18612725D01*
X948872Y18532552D01*
X907961Y18456013D01*
X882769Y18372966D01*
X849559Y18292790D01*
X832628Y18207672D01*
X807437Y18124628D01*
X798931Y18038266D01*
X782000Y17953148D01*
X782000Y17866363D01*
X773494Y17780000D01*
X782000Y17693637D01*
X782000Y17606852D01*
X798931Y17521734D01*
X807437Y17435372D01*
X832628Y17352328D01*
X849559Y17267210D01*
X882769Y17187034D01*
X907961Y17103987D01*
X948872Y17027448D01*
X982081Y16947275D01*
X1030294Y16875118D01*
X1071204Y16798582D01*
X1126255Y16731503D01*
X1174472Y16659340D01*
X1235844Y16597968D01*
X1290892Y16530892D01*
X1316349Y16510000D01*
X1290892Y16489108D01*
X1235844Y16422032D01*
X1174472Y16360660D01*
X1126255Y16288497D01*
X1071204Y16221418D01*
X1030294Y16144882D01*
X982081Y16072725D01*
X948872Y15992552D01*
X907961Y15916013D01*
X882769Y15832966D01*
X849559Y15752790D01*
X832628Y15667672D01*
X807437Y15584628D01*
X798931Y15498266D01*
X782000Y15413148D01*
X782000Y15326363D01*
X773494Y15240000D01*
X782000Y15153637D01*
X782000Y15066852D01*
X798931Y14981734D01*
X807437Y14895372D01*
X832628Y14812328D01*
X849559Y14727210D01*
X882769Y14647034D01*
X907961Y14563987D01*
X948872Y14487448D01*
X982081Y14407275D01*
X1030294Y14335118D01*
X1071204Y14258582D01*
X1126255Y14191503D01*
X1174472Y14119340D01*
X1235844Y14057968D01*
X1290892Y13990892D01*
X1316349Y13970000D01*
X1290892Y13949108D01*
X1235844Y13882032D01*
X1174472Y13820660D01*
X1126255Y13748497D01*
X1071204Y13681418D01*
X1030294Y13604882D01*
X982081Y13532725D01*
X948872Y13452552D01*
X907961Y13376013D01*
X882769Y13292966D01*
X849559Y13212790D01*
X832628Y13127672D01*
X807437Y13044628D01*
X798931Y12958266D01*
X782000Y12873148D01*
X782000Y12786363D01*
X773494Y12700000D01*
X782000Y12613637D01*
X782000Y12526852D01*
X798931Y12441734D01*
X807437Y12355372D01*
X832628Y12272328D01*
X849559Y12187210D01*
X882769Y12107034D01*
X907961Y12023987D01*
X948872Y11947448D01*
X982081Y11867275D01*
X1030294Y11795118D01*
X1071204Y11718582D01*
X1126255Y11651503D01*
X1174472Y11579340D01*
X1235844Y11517968D01*
X1290892Y11450892D01*
X1357968Y11395844D01*
X1419340Y11334472D01*
X1491503Y11286255D01*
X1558582Y11231204D01*
X1635118Y11190294D01*
X1707275Y11142081D01*
X1787448Y11108872D01*
X1863987Y11067961D01*
X1947034Y11042769D01*
X2027210Y11009559D01*
X2112328Y10992628D01*
X2195372Y10967437D01*
X2281734Y10958931D01*
X2366852Y10942000D01*
X4771070Y10942000D01*
X4758872Y10912552D01*
X4717961Y10836013D01*
X4692769Y10752966D01*
X4659559Y10672790D01*
X4642628Y10587672D01*
X4617437Y10504628D01*
X4608931Y10418266D01*
X4592000Y10333148D01*
X4592000Y10246363D01*
X4583494Y10160000D01*
X4592000Y10073637D01*
X4592000Y9986852D01*
X4608931Y9901734D01*
X4617437Y9815372D01*
X4642628Y9732328D01*
X4659559Y9647210D01*
X4692769Y9567034D01*
X4717961Y9483987D01*
X4758872Y9407448D01*
X4771070Y9378000D01*
X2366852Y9378000D01*
X2281734Y9361069D01*
X2195372Y9352563D01*
X2112328Y9327372D01*
X2027210Y9310441D01*
X1947034Y9277231D01*
X1863987Y9252039D01*
X1787448Y9211128D01*
X1707275Y9177919D01*
X1635118Y9129706D01*
X1558582Y9088796D01*
X1491503Y9033745D01*
X1419340Y8985528D01*
X1357968Y8924156D01*
X1290892Y8869108D01*
X1235844Y8802032D01*
X1174472Y8740660D01*
X1126255Y8668497D01*
X1071204Y8601418D01*
X1030294Y8524882D01*
X982081Y8452725D01*
X948872Y8372552D01*
X907961Y8296013D01*
X882769Y8212966D01*
X849559Y8132790D01*
X832628Y8047672D01*
X807437Y7964628D01*
X798931Y7878266D01*
X782000Y7793148D01*
X782000Y7706363D01*
X773494Y7620000D01*
X782000Y7533637D01*
X782000Y7446852D01*
X798931Y7361734D01*
X807437Y7275372D01*
X832628Y7192328D01*
X849559Y7107210D01*
X882769Y7027034D01*
X907961Y6943987D01*
X948872Y6867448D01*
X982081Y6787275D01*
X1030294Y6715118D01*
X1071204Y6638582D01*
X1126255Y6571503D01*
X1174472Y6499340D01*
X1235844Y6437968D01*
X1290892Y6370892D01*
X1357968Y6315844D01*
X1419340Y6254472D01*
X1491503Y6206255D01*
X1558582Y6151204D01*
X1635118Y6110294D01*
X1707275Y6062081D01*
X1787448Y6028872D01*
X1863987Y5987961D01*
X1947034Y5962769D01*
X2027210Y5929559D01*
X2112328Y5912628D01*
X2195372Y5887437D01*
X2281734Y5878931D01*
X2366852Y5862000D01*
X15413148Y5862000D01*
X15498266Y5878931D01*
X15584628Y5887437D01*
X15667672Y5912628D01*
X15752790Y5929559D01*
X15832966Y5962769D01*
X15916013Y5987961D01*
X15992552Y6028872D01*
X16072725Y6062081D01*
X16144882Y6110294D01*
X16221418Y6151204D01*
X16288497Y6206255D01*
X16360660Y6254472D01*
X16422032Y6315844D01*
X16489108Y6370892D01*
X16544156Y6437968D01*
X16605528Y6499340D01*
X16653745Y6571503D01*
X16708796Y6638582D01*
X16749706Y6715118D01*
X16797919Y6787275D01*
X16831128Y6867448D01*
X16872039Y6943987D01*
X16897231Y7027034D01*
X16930441Y7107210D01*
X16947372Y7192328D01*
X16972563Y7275372D01*
X16981069Y7361734D01*
X16998000Y7446852D01*
X16998000Y7533637D01*
X17006506Y7620000D01*
X16998000Y7706363D01*
X16998000Y7793148D01*
X16981069Y7878266D01*
X16972563Y7964628D01*
X16947372Y8047672D01*
X16930441Y8132790D01*
X16897231Y8212966D01*
X16872039Y8296013D01*
X16831128Y8372552D01*
X16797919Y8452725D01*
X16749706Y8524882D01*
X16708796Y8601418D01*
X16653745Y8668497D01*
X16605528Y8740660D01*
X16544156Y8802032D01*
X16489108Y8869108D01*
X16463651Y8890000D01*
X16489108Y8910892D01*
X16544156Y8977968D01*
X16605528Y9039340D01*
X16653745Y9111503D01*
X16708796Y9178582D01*
X16749706Y9255118D01*
X16797919Y9327275D01*
X16831128Y9407448D01*
X16872039Y9483987D01*
X16897231Y9567034D01*
X16930441Y9647210D01*
X16947372Y9732328D01*
X16972563Y9815372D01*
X16981069Y9901734D01*
X16998000Y9986852D01*
X16998000Y10073637D01*
X17006506Y10160000D01*
X16998000Y10246363D01*
X16998000Y10333148D01*
X16981069Y10418266D01*
X16972563Y10504628D01*
X16947372Y10587672D01*
X16930441Y10672790D01*
X16897231Y10752966D01*
X16872039Y10836013D01*
X16831128Y10912552D01*
X16797919Y10992725D01*
X16749706Y11064882D01*
X16708796Y11141418D01*
X16653745Y11208497D01*
X16605528Y11280660D01*
X16544156Y11342032D01*
X16489108Y11409108D01*
X16463651Y11430000D01*
X16489108Y11450892D01*
X16544156Y11517968D01*
X16605528Y11579340D01*
X16653745Y11651503D01*
X16708796Y11718582D01*
X16749706Y11795118D01*
X16797919Y11867275D01*
X16831128Y11947448D01*
X16872039Y12023987D01*
X16897231Y12107034D01*
X16930441Y12187210D01*
X16947372Y12272328D01*
X16972563Y12355372D01*
X16981069Y12441734D01*
X16998000Y12526852D01*
X16998000Y12613637D01*
X17006506Y12700000D01*
X16998000Y12786363D01*
X16998000Y12873148D01*
X16981069Y12958266D01*
X16972563Y13044628D01*
X16947372Y13127672D01*
X16930441Y13212790D01*
X16897231Y13292966D01*
X16872039Y13376013D01*
X16831128Y13452552D01*
X16797919Y13532725D01*
X16749706Y13604882D01*
X16708796Y13681418D01*
X16653745Y13748497D01*
X16605528Y13820660D01*
X16544156Y13882032D01*
X16489108Y13949108D01*
X16463651Y13970000D01*
X16489108Y13990892D01*
X16544156Y14057968D01*
X16605528Y14119340D01*
X16653745Y14191503D01*
X16708796Y14258582D01*
X16749706Y14335118D01*
X16797919Y14407275D01*
X16831128Y14487448D01*
X16872039Y14563987D01*
X16897231Y14647034D01*
X16930441Y14727210D01*
X16947372Y14812328D01*
X16972563Y14895372D01*
X16981069Y14981734D01*
X16998000Y15066852D01*
X16998000Y15153637D01*
X17006506Y15240000D01*
X16998000Y15326363D01*
X16998000Y15413148D01*
X16981069Y15498266D01*
X16972563Y15584628D01*
X16947372Y15667672D01*
X16930441Y15752790D01*
X16897231Y15832966D01*
X16872039Y15916013D01*
X16831128Y15992552D01*
X16797919Y16072725D01*
X16749706Y16144882D01*
X16708796Y16221418D01*
X16653745Y16288497D01*
X16605528Y16360660D01*
X16544156Y16422032D01*
X16489108Y16489108D01*
X16463651Y16510000D01*
X16489108Y16530892D01*
X16544156Y16597968D01*
X16605528Y16659340D01*
X16653745Y16731503D01*
X16708796Y16798582D01*
X16749706Y16875118D01*
X16797919Y16947275D01*
X16831128Y17027448D01*
X16872039Y17103987D01*
X16897231Y17187034D01*
X16930441Y17267210D01*
X16947372Y17352328D01*
X16972563Y17435372D01*
X16981069Y17521734D01*
X16998000Y17606852D01*
X16998000Y17693637D01*
X17006506Y17780000D01*
X16998000Y17866363D01*
X16998000Y17953148D01*
X16981069Y18038266D01*
X16972563Y18124628D01*
X16947372Y18207672D01*
X16930441Y18292790D01*
X16897231Y18372966D01*
X16872039Y18456013D01*
X16831128Y18532552D01*
X16797919Y18612725D01*
X16749706Y18684882D01*
X16708796Y18761418D01*
X16653745Y18828497D01*
X16605528Y18900660D01*
X16544156Y18962032D01*
X16489108Y19029108D01*
X16463651Y19050000D01*
X16489108Y19070892D01*
X16544156Y19137968D01*
X16605528Y19199340D01*
X16653745Y19271503D01*
X16708796Y19338582D01*
X16749706Y19415118D01*
X16797919Y19487275D01*
X16831128Y19567448D01*
X16872039Y19643987D01*
X16897231Y19727034D01*
X16930441Y19807210D01*
X16947372Y19892328D01*
X16972563Y19975372D01*
X16981069Y20061734D01*
X16998000Y20146852D01*
X16998000Y20233637D01*
X17006506Y20320000D01*
X16998000Y20406363D01*
X16998000Y20493148D01*
X16981069Y20578266D01*
X16972563Y20664628D01*
X16947372Y20747672D01*
X16930441Y20832790D01*
X16897231Y20912966D01*
X16872039Y20996013D01*
X16831128Y21072552D01*
X16797919Y21152725D01*
X16749706Y21224882D01*
X16708796Y21301418D01*
X16653745Y21368497D01*
X16605528Y21440660D01*
X16544156Y21502032D01*
X16489108Y21569108D01*
X16463651Y21590000D01*
X16489108Y21610892D01*
X16544156Y21677968D01*
X16605528Y21739340D01*
X16653745Y21811503D01*
X16708796Y21878582D01*
X16749706Y21955118D01*
X16797919Y22027275D01*
X16831128Y22107448D01*
X16872039Y22183987D01*
X16897231Y22267034D01*
X16930441Y22347210D01*
X16947372Y22432328D01*
X16972563Y22515372D01*
X16981069Y22601734D01*
X16998000Y22686852D01*
X16998000Y22773637D01*
X17006506Y22860000D01*
X16998000Y22946363D01*
X16998000Y23033148D01*
X16981069Y23118266D01*
X16972563Y23204628D01*
X16947372Y23287672D01*
X16930441Y23372790D01*
X16897231Y23452966D01*
X16872039Y23536013D01*
X16831128Y23612552D01*
X16797919Y23692725D01*
X16749706Y23764882D01*
X16708796Y23841418D01*
X16653745Y23908497D01*
X16605528Y23980660D01*
X16544156Y24042032D01*
X16489108Y24109108D01*
X16463651Y24130000D01*
X16489108Y24150892D01*
X16544156Y24217968D01*
X16605528Y24279340D01*
X16653745Y24351503D01*
X16708796Y24418582D01*
X16749706Y24495118D01*
X16797919Y24567275D01*
X16831128Y24647448D01*
X16872039Y24723987D01*
X16897231Y24807034D01*
X16930441Y24887210D01*
X16947372Y24972328D01*
X16972563Y25055372D01*
X16981069Y25141734D01*
X16998000Y25226852D01*
X16998000Y25313637D01*
X17006506Y25400000D01*
X16998000Y25486363D01*
X16998000Y25573148D01*
X16981069Y25658266D01*
X16972563Y25744628D01*
X16947372Y25827672D01*
X16930441Y25912790D01*
X16897231Y25992966D01*
X16872039Y26076013D01*
X16831128Y26152552D01*
X16797919Y26232725D01*
X16749706Y26304882D01*
X16708796Y26381418D01*
X16653745Y26448497D01*
X16605528Y26520660D01*
X16544156Y26582032D01*
X16489108Y26649108D01*
X16463651Y26670000D01*
X16489108Y26690892D01*
X16544156Y26757968D01*
X16605528Y26819340D01*
X16653745Y26891503D01*
X16708796Y26958582D01*
X16749706Y27035118D01*
X16797919Y27107275D01*
X16831128Y27187448D01*
X16872039Y27263987D01*
X16897231Y27347034D01*
X16930441Y27427210D01*
X16947372Y27512328D01*
X16972563Y27595372D01*
X16981069Y27681734D01*
X16998000Y27766852D01*
X16998000Y27853637D01*
X17006506Y27940000D01*
X16998000Y28026363D01*
X16998000Y28113148D01*
X16981069Y28198266D01*
X16972563Y28284628D01*
X16947372Y28367672D01*
X16930441Y28452790D01*
X16897231Y28532966D01*
X16872039Y28616013D01*
X16831128Y28692552D01*
X16797919Y28772725D01*
X16749706Y28844882D01*
X16708796Y28921418D01*
X16653745Y28988497D01*
X16605528Y29060660D01*
X16544156Y29122032D01*
X16489108Y29189108D01*
X16463651Y29210000D01*
X16489108Y29230892D01*
X16544156Y29297968D01*
X16605528Y29359340D01*
X16653745Y29431503D01*
X16708796Y29498582D01*
X16749706Y29575118D01*
X16797919Y29647275D01*
X16831128Y29727448D01*
X16872039Y29803987D01*
X16897231Y29887034D01*
X16930441Y29967210D01*
X16947372Y30052328D01*
X16972563Y30135372D01*
X16981069Y30221734D01*
X16998000Y30306852D01*
X16998000Y30393637D01*
X17006506Y30480000D01*
X16998000Y30566363D01*
X16998000Y30653148D01*
X16981069Y30738266D01*
X16972563Y30824628D01*
X16947372Y30907672D01*
X16930441Y30992790D01*
X16897231Y31072966D01*
X16872039Y31156013D01*
X16831128Y31232552D01*
X16797919Y31312725D01*
X16749706Y31384882D01*
X16708796Y31461418D01*
X16653745Y31528497D01*
X16605528Y31600660D01*
X16544156Y31662032D01*
X16489108Y31729108D01*
X16463651Y31750000D01*
X16489108Y31770892D01*
X16544156Y31837968D01*
X16605528Y31899340D01*
X16653745Y31971503D01*
X16708796Y32038582D01*
X16749706Y32115118D01*
X16797919Y32187275D01*
X16831128Y32267448D01*
X16872039Y32343987D01*
X16897231Y32427034D01*
X16930441Y32507210D01*
X16947372Y32592328D01*
X16972563Y32675372D01*
X16981069Y32761734D01*
X16998000Y32846852D01*
X16998000Y32933637D01*
X17006506Y33020000D01*
X16998000Y33106363D01*
X16998000Y33193148D01*
X16981069Y33278266D01*
X16972563Y33364628D01*
X16947372Y33447672D01*
X16930441Y33532790D01*
X16897231Y33612966D01*
X16872039Y33696013D01*
X16831128Y33772552D01*
X16797919Y33852725D01*
X16749706Y33924882D01*
X16708796Y34001418D01*
X16653745Y34068497D01*
X16605528Y34140660D01*
X16544156Y34202032D01*
X16489108Y34269108D01*
X16459552Y34293364D01*
X16605528Y34439340D01*
X16797919Y34727275D01*
X16930441Y35047210D01*
X16998000Y35386852D01*
X16998000Y35733148D01*
X16930441Y36072790D01*
X16797919Y36392725D01*
X16605528Y36680660D01*
X16360660Y36925528D01*
X16072725Y37117919D01*
X15752790Y37250441D01*
X15413148Y37318000D01*
X15066852Y37318000D01*
X14727210Y37250441D01*
X14407275Y37117919D01*
X14119340Y36925528D01*
X13874472Y36680660D01*
X13682081Y36392725D01*
X13549559Y36072790D01*
X13482000Y35733148D01*
X13482000Y35386852D01*
X13549559Y35047210D01*
X13661070Y34778000D01*
X6176852Y34778000D01*
X6091734Y34761069D01*
X6005372Y34752563D01*
X5922328Y34727372D01*
X5837210Y34710441D01*
X5757034Y34677231D01*
X5673987Y34652039D01*
X5597448Y34611128D01*
X5517275Y34577919D01*
X5445118Y34529706D01*
X5368582Y34488796D01*
X5301503Y34433745D01*
X5229340Y34385528D01*
X5167968Y34324156D01*
X5100892Y34269108D01*
X5045844Y34202032D01*
X4984472Y34140660D01*
X4936255Y34068497D01*
X4881204Y34001418D01*
X4840294Y33924882D01*
X4792081Y33852725D01*
X4758872Y33772552D01*
X4717961Y33696013D01*
X4692769Y33612966D01*
X4659559Y33532790D01*
X4642628Y33447672D01*
X4617437Y33364628D01*
X4608931Y33278266D01*
X4592000Y33193148D01*
X4592000Y33106363D01*
X4583494Y33020000D01*
X4592000Y32933637D01*
X4592000Y32846852D01*
X4608931Y32761734D01*
X4617437Y32675372D01*
X4642628Y32592328D01*
X4659559Y32507210D01*
X4692769Y32427034D01*
X4717961Y32343987D01*
X4758872Y32267448D01*
X4792081Y32187275D01*
X4840294Y32115118D01*
X4881204Y32038582D01*
X4936255Y31971503D01*
X4984472Y31899340D01*
X5045844Y31837968D01*
X5100892Y31770892D01*
X5167968Y31715844D01*
X5229340Y31654472D01*
X5301503Y31606255D01*
X5368582Y31551204D01*
X5445118Y31510294D01*
X5517275Y31462081D01*
X5597448Y31428872D01*
X5673987Y31387961D01*
X5757034Y31362769D01*
X5837210Y31329559D01*
X5922328Y31312628D01*
X6005372Y31287437D01*
X6091734Y31278931D01*
X6176852Y31262000D01*
X7311070Y31262000D01*
X7298872Y31232552D01*
X7257961Y31156013D01*
X7232769Y31072966D01*
X7199559Y30992790D01*
X7182628Y30907672D01*
X7157437Y30824628D01*
X7148931Y30738266D01*
X7132000Y30653148D01*
X7132000Y30566363D01*
X7123494Y30480000D01*
X7132000Y30393637D01*
X7132000Y30306852D01*
X7148931Y30221734D01*
X7157437Y30135372D01*
X7182628Y30052328D01*
X7199559Y29967210D01*
X7232769Y29887034D01*
X7257961Y29803987D01*
X7298872Y29727448D01*
X7311070Y29698000D01*
X2366852Y29698000D01*
X2281734Y29681069D01*
X2195372Y29672563D01*
X2112328Y29647372D01*
X2027210Y29630441D01*
X1947034Y29597231D01*
X1863987Y29572039D01*
X1787448Y29531128D01*
X1707275Y29497919D01*
X1635118Y29449706D01*
X1558582Y29408796D01*
X1491503Y29353745D01*
X1419340Y29305528D01*
X1357968Y29244156D01*
X1290892Y29189108D01*
X1235844Y29122032D01*
X1174472Y29060660D01*
X1126255Y28988497D01*
X1071204Y28921418D01*
X1030294Y28844882D01*
X982081Y28772725D01*
X948872Y28692552D01*
X907961Y28616013D01*
X882769Y28532966D01*
X849559Y28452790D01*
X832628Y28367672D01*
X807437Y28284628D01*
X798931Y28198266D01*
X782000Y28113148D01*
X782000Y28026363D01*
X773494Y27940000D01*
X683000Y27940000D01*
X683000Y37417000D01*
X17097000Y37417000D01*
X17097001Y683000D01*
G37*
X17097001Y683000D02*
X683000Y683000D01*
X683000Y2540000D01*
X773494Y2540000D01*
X782000Y2453637D01*
X782000Y2366852D01*
X798931Y2281734D01*
X807437Y2195372D01*
X832628Y2112328D01*
X849559Y2027210D01*
X882769Y1947034D01*
X907961Y1863987D01*
X948872Y1787448D01*
X982081Y1707275D01*
X1030294Y1635118D01*
X1071204Y1558582D01*
X1126255Y1491503D01*
X1174472Y1419340D01*
X1235844Y1357968D01*
X1290892Y1290892D01*
X1357968Y1235844D01*
X1419340Y1174472D01*
X1491503Y1126255D01*
X1558582Y1071204D01*
X1635118Y1030294D01*
X1707275Y982081D01*
X1787448Y948872D01*
X1863987Y907961D01*
X1947034Y882769D01*
X2027210Y849559D01*
X2112328Y832628D01*
X2195372Y807437D01*
X2281734Y798931D01*
X2366852Y782000D01*
X15413148Y782000D01*
X15498266Y798931D01*
X15584628Y807437D01*
X15667672Y832628D01*
X15752790Y849559D01*
X15832966Y882769D01*
X15916013Y907961D01*
X15992552Y948872D01*
X16072725Y982081D01*
X16144882Y1030294D01*
X16221418Y1071204D01*
X16288497Y1126255D01*
X16360660Y1174472D01*
X16422032Y1235844D01*
X16489108Y1290892D01*
X16544156Y1357968D01*
X16605528Y1419340D01*
X16653745Y1491503D01*
X16708796Y1558582D01*
X16749706Y1635118D01*
X16797919Y1707275D01*
X16831128Y1787448D01*
X16872039Y1863987D01*
X16897231Y1947034D01*
X16930441Y2027210D01*
X16947372Y2112328D01*
X16972563Y2195372D01*
X16981069Y2281734D01*
X16998000Y2366852D01*
X16998000Y2453637D01*
X17006506Y2540000D01*
X16998000Y2626363D01*
X16998000Y2713148D01*
X16981069Y2798266D01*
X16972563Y2884628D01*
X16947372Y2967672D01*
X16930441Y3052790D01*
X16897231Y3132966D01*
X16872039Y3216013D01*
X16831128Y3292552D01*
X16797919Y3372725D01*
X16749706Y3444882D01*
X16708796Y3521418D01*
X16653745Y3588497D01*
X16605528Y3660660D01*
X16544156Y3722032D01*
X16489108Y3789108D01*
X16422032Y3844156D01*
X16360660Y3905528D01*
X16288497Y3953745D01*
X16221418Y4008796D01*
X16144882Y4049706D01*
X16072725Y4097919D01*
X15992552Y4131128D01*
X15916013Y4172039D01*
X15832966Y4197231D01*
X15752790Y4230441D01*
X15667672Y4247372D01*
X15584628Y4272563D01*
X15498266Y4281069D01*
X15413148Y4298000D01*
X2366852Y4298000D01*
X2281734Y4281069D01*
X2195372Y4272563D01*
X2112328Y4247372D01*
X2027210Y4230441D01*
X1947034Y4197231D01*
X1863987Y4172039D01*
X1787448Y4131128D01*
X1707275Y4097919D01*
X1635118Y4049706D01*
X1558582Y4008796D01*
X1491503Y3953745D01*
X1419340Y3905528D01*
X1357968Y3844156D01*
X1290892Y3789108D01*
X1235844Y3722032D01*
X1174472Y3660660D01*
X1126255Y3588497D01*
X1071204Y3521418D01*
X1030294Y3444882D01*
X982081Y3372725D01*
X948872Y3292552D01*
X907961Y3216013D01*
X882769Y3132966D01*
X849559Y3052790D01*
X832628Y2967672D01*
X807437Y2884628D01*
X798931Y2798266D01*
X782000Y2713148D01*
X782000Y2626363D01*
X773494Y2540000D01*
X683000Y2540000D01*
X683000Y27940000D01*
X773494Y27940000D01*
X782000Y27853637D01*
X782000Y27766852D01*
X798931Y27681734D01*
X807437Y27595372D01*
X832628Y27512328D01*
X849559Y27427210D01*
X882769Y27347034D01*
X907961Y27263987D01*
X948872Y27187448D01*
X982081Y27107275D01*
X1030294Y27035118D01*
X1071204Y26958582D01*
X1126255Y26891503D01*
X1174472Y26819340D01*
X1235844Y26757968D01*
X1290892Y26690892D01*
X1357968Y26635844D01*
X1419340Y26574472D01*
X1491503Y26526255D01*
X1558582Y26471204D01*
X1635118Y26430294D01*
X1707275Y26382081D01*
X1787448Y26348872D01*
X1863987Y26307961D01*
X1947034Y26282769D01*
X2027210Y26249559D01*
X2112328Y26232628D01*
X2195372Y26207437D01*
X2281734Y26198931D01*
X2366852Y26182000D01*
X9851070Y26182000D01*
X9838872Y26152552D01*
X9797961Y26076013D01*
X9772769Y25992966D01*
X9739559Y25912790D01*
X9722628Y25827672D01*
X9697437Y25744628D01*
X9688931Y25658266D01*
X9672000Y25573148D01*
X9672000Y25486363D01*
X9663494Y25400000D01*
X9672000Y25313637D01*
X9672000Y25226852D01*
X9688931Y25141734D01*
X9697437Y25055372D01*
X9722628Y24972328D01*
X9739559Y24887210D01*
X9772769Y24807034D01*
X9797961Y24723987D01*
X9838872Y24647448D01*
X9851070Y24618000D01*
X2366852Y24618000D01*
X2281734Y24601069D01*
X2195372Y24592563D01*
X2112328Y24567372D01*
X2027210Y24550441D01*
X1947034Y24517231D01*
X1863987Y24492039D01*
X1787448Y24451128D01*
X1707275Y24417919D01*
X1635118Y24369706D01*
X1558582Y24328796D01*
X1491503Y24273745D01*
X1419340Y24225528D01*
X1357968Y24164156D01*
X1290892Y24109108D01*
X1235844Y24042032D01*
X1174472Y23980660D01*
X1126255Y23908497D01*
X1071204Y23841418D01*
X1030294Y23764882D01*
X982081Y23692725D01*
X948872Y23612552D01*
X907961Y23536013D01*
X882769Y23452966D01*
X849559Y23372790D01*
X832628Y23287672D01*
X807437Y23204628D01*
X798931Y23118266D01*
X782000Y23033148D01*
X782000Y22946363D01*
X773494Y22860000D01*
X782000Y22773637D01*
X782000Y22686852D01*
X798931Y22601734D01*
X807437Y22515372D01*
X832628Y22432328D01*
X849559Y22347210D01*
X882769Y22267034D01*
X907961Y22183987D01*
X948872Y22107448D01*
X982081Y22027275D01*
X1030294Y21955118D01*
X1071204Y21878582D01*
X1126255Y21811503D01*
X1174472Y21739340D01*
X1235844Y21677968D01*
X1290892Y21610892D01*
X1357968Y21555844D01*
X1419340Y21494472D01*
X1491503Y21446255D01*
X1558582Y21391204D01*
X1635118Y21350294D01*
X1707275Y21302081D01*
X1787448Y21268872D01*
X1863987Y21227961D01*
X1947034Y21202769D01*
X2027210Y21169559D01*
X2112328Y21152628D01*
X2195372Y21127437D01*
X2281734Y21118931D01*
X2366852Y21102000D01*
X4771070Y21102000D01*
X4758872Y21072552D01*
X4717961Y20996013D01*
X4692769Y20912966D01*
X4659559Y20832790D01*
X4642628Y20747672D01*
X4617437Y20664628D01*
X4608931Y20578266D01*
X4592000Y20493148D01*
X4592000Y20406363D01*
X4583494Y20320000D01*
X4592000Y20233637D01*
X4592000Y20146852D01*
X4608931Y20061734D01*
X4617437Y19975372D01*
X4642628Y19892328D01*
X4659559Y19807210D01*
X4692769Y19727034D01*
X4717961Y19643987D01*
X4758872Y19567448D01*
X4771070Y19538000D01*
X2366852Y19538000D01*
X2281734Y19521069D01*
X2195372Y19512563D01*
X2112328Y19487372D01*
X2027210Y19470441D01*
X1947034Y19437231D01*
X1863987Y19412039D01*
X1787448Y19371128D01*
X1707275Y19337919D01*
X1635118Y19289706D01*
X1558582Y19248796D01*
X1491503Y19193745D01*
X1419340Y19145528D01*
X1357968Y19084156D01*
X1290892Y19029108D01*
X1235844Y18962032D01*
X1174472Y18900660D01*
X1126255Y18828497D01*
X1071204Y18761418D01*
X1030294Y18684882D01*
X982081Y18612725D01*
X948872Y18532552D01*
X907961Y18456013D01*
X882769Y18372966D01*
X849559Y18292790D01*
X832628Y18207672D01*
X807437Y18124628D01*
X798931Y18038266D01*
X782000Y17953148D01*
X782000Y17866363D01*
X773494Y17780000D01*
X782000Y17693637D01*
X782000Y17606852D01*
X798931Y17521734D01*
X807437Y17435372D01*
X832628Y17352328D01*
X849559Y17267210D01*
X882769Y17187034D01*
X907961Y17103987D01*
X948872Y17027448D01*
X982081Y16947275D01*
X1030294Y16875118D01*
X1071204Y16798582D01*
X1126255Y16731503D01*
X1174472Y16659340D01*
X1235844Y16597968D01*
X1290892Y16530892D01*
X1316349Y16510000D01*
X1290892Y16489108D01*
X1235844Y16422032D01*
X1174472Y16360660D01*
X1126255Y16288497D01*
X1071204Y16221418D01*
X1030294Y16144882D01*
X982081Y16072725D01*
X948872Y15992552D01*
X907961Y15916013D01*
X882769Y15832966D01*
X849559Y15752790D01*
X832628Y15667672D01*
X807437Y15584628D01*
X798931Y15498266D01*
X782000Y15413148D01*
X782000Y15326363D01*
X773494Y15240000D01*
X782000Y15153637D01*
X782000Y15066852D01*
X798931Y14981734D01*
X807437Y14895372D01*
X832628Y14812328D01*
X849559Y14727210D01*
X882769Y14647034D01*
X907961Y14563987D01*
X948872Y14487448D01*
X982081Y14407275D01*
X1030294Y14335118D01*
X1071204Y14258582D01*
X1126255Y14191503D01*
X1174472Y14119340D01*
X1235844Y14057968D01*
X1290892Y13990892D01*
X1316349Y13970000D01*
X1290892Y13949108D01*
X1235844Y13882032D01*
X1174472Y13820660D01*
X1126255Y13748497D01*
X1071204Y13681418D01*
X1030294Y13604882D01*
X982081Y13532725D01*
X948872Y13452552D01*
X907961Y13376013D01*
X882769Y13292966D01*
X849559Y13212790D01*
X832628Y13127672D01*
X807437Y13044628D01*
X798931Y12958266D01*
X782000Y12873148D01*
X782000Y12786363D01*
X773494Y12700000D01*
X782000Y12613637D01*
X782000Y12526852D01*
X798931Y12441734D01*
X807437Y12355372D01*
X832628Y12272328D01*
X849559Y12187210D01*
X882769Y12107034D01*
X907961Y12023987D01*
X948872Y11947448D01*
X982081Y11867275D01*
X1030294Y11795118D01*
X1071204Y11718582D01*
X1126255Y11651503D01*
X1174472Y11579340D01*
X1235844Y11517968D01*
X1290892Y11450892D01*
X1357968Y11395844D01*
X1419340Y11334472D01*
X1491503Y11286255D01*
X1558582Y11231204D01*
X1635118Y11190294D01*
X1707275Y11142081D01*
X1787448Y11108872D01*
X1863987Y11067961D01*
X1947034Y11042769D01*
X2027210Y11009559D01*
X2112328Y10992628D01*
X2195372Y10967437D01*
X2281734Y10958931D01*
X2366852Y10942000D01*
X4771070Y10942000D01*
X4758872Y10912552D01*
X4717961Y10836013D01*
X4692769Y10752966D01*
X4659559Y10672790D01*
X4642628Y10587672D01*
X4617437Y10504628D01*
X4608931Y10418266D01*
X4592000Y10333148D01*
X4592000Y10246363D01*
X4583494Y10160000D01*
X4592000Y10073637D01*
X4592000Y9986852D01*
X4608931Y9901734D01*
X4617437Y9815372D01*
X4642628Y9732328D01*
X4659559Y9647210D01*
X4692769Y9567034D01*
X4717961Y9483987D01*
X4758872Y9407448D01*
X4771070Y9378000D01*
X2366852Y9378000D01*
X2281734Y9361069D01*
X2195372Y9352563D01*
X2112328Y9327372D01*
X2027210Y9310441D01*
X1947034Y9277231D01*
X1863987Y9252039D01*
X1787448Y9211128D01*
X1707275Y9177919D01*
X1635118Y9129706D01*
X1558582Y9088796D01*
X1491503Y9033745D01*
X1419340Y8985528D01*
X1357968Y8924156D01*
X1290892Y8869108D01*
X1235844Y8802032D01*
X1174472Y8740660D01*
X1126255Y8668497D01*
X1071204Y8601418D01*
X1030294Y8524882D01*
X982081Y8452725D01*
X948872Y8372552D01*
X907961Y8296013D01*
X882769Y8212966D01*
X849559Y8132790D01*
X832628Y8047672D01*
X807437Y7964628D01*
X798931Y7878266D01*
X782000Y7793148D01*
X782000Y7706363D01*
X773494Y7620000D01*
X782000Y7533637D01*
X782000Y7446852D01*
X798931Y7361734D01*
X807437Y7275372D01*
X832628Y7192328D01*
X849559Y7107210D01*
X882769Y7027034D01*
X907961Y6943987D01*
X948872Y6867448D01*
X982081Y6787275D01*
X1030294Y6715118D01*
X1071204Y6638582D01*
X1126255Y6571503D01*
X1174472Y6499340D01*
X1235844Y6437968D01*
X1290892Y6370892D01*
X1357968Y6315844D01*
X1419340Y6254472D01*
X1491503Y6206255D01*
X1558582Y6151204D01*
X1635118Y6110294D01*
X1707275Y6062081D01*
X1787448Y6028872D01*
X1863987Y5987961D01*
X1947034Y5962769D01*
X2027210Y5929559D01*
X2112328Y5912628D01*
X2195372Y5887437D01*
X2281734Y5878931D01*
X2366852Y5862000D01*
X15413148Y5862000D01*
X15498266Y5878931D01*
X15584628Y5887437D01*
X15667672Y5912628D01*
X15752790Y5929559D01*
X15832966Y5962769D01*
X15916013Y5987961D01*
X15992552Y6028872D01*
X16072725Y6062081D01*
X16144882Y6110294D01*
X16221418Y6151204D01*
X16288497Y6206255D01*
X16360660Y6254472D01*
X16422032Y6315844D01*
X16489108Y6370892D01*
X16544156Y6437968D01*
X16605528Y6499340D01*
X16653745Y6571503D01*
X16708796Y6638582D01*
X16749706Y6715118D01*
X16797919Y6787275D01*
X16831128Y6867448D01*
X16872039Y6943987D01*
X16897231Y7027034D01*
X16930441Y7107210D01*
X16947372Y7192328D01*
X16972563Y7275372D01*
X16981069Y7361734D01*
X16998000Y7446852D01*
X16998000Y7533637D01*
X17006506Y7620000D01*
X16998000Y7706363D01*
X16998000Y7793148D01*
X16981069Y7878266D01*
X16972563Y7964628D01*
X16947372Y8047672D01*
X16930441Y8132790D01*
X16897231Y8212966D01*
X16872039Y8296013D01*
X16831128Y8372552D01*
X16797919Y8452725D01*
X16749706Y8524882D01*
X16708796Y8601418D01*
X16653745Y8668497D01*
X16605528Y8740660D01*
X16544156Y8802032D01*
X16489108Y8869108D01*
X16463651Y8890000D01*
X16489108Y8910892D01*
X16544156Y8977968D01*
X16605528Y9039340D01*
X16653745Y9111503D01*
X16708796Y9178582D01*
X16749706Y9255118D01*
X16797919Y9327275D01*
X16831128Y9407448D01*
X16872039Y9483987D01*
X16897231Y9567034D01*
X16930441Y9647210D01*
X16947372Y9732328D01*
X16972563Y9815372D01*
X16981069Y9901734D01*
X16998000Y9986852D01*
X16998000Y10073637D01*
X17006506Y10160000D01*
X16998000Y10246363D01*
X16998000Y10333148D01*
X16981069Y10418266D01*
X16972563Y10504628D01*
X16947372Y10587672D01*
X16930441Y10672790D01*
X16897231Y10752966D01*
X16872039Y10836013D01*
X16831128Y10912552D01*
X16797919Y10992725D01*
X16749706Y11064882D01*
X16708796Y11141418D01*
X16653745Y11208497D01*
X16605528Y11280660D01*
X16544156Y11342032D01*
X16489108Y11409108D01*
X16463651Y11430000D01*
X16489108Y11450892D01*
X16544156Y11517968D01*
X16605528Y11579340D01*
X16653745Y11651503D01*
X16708796Y11718582D01*
X16749706Y11795118D01*
X16797919Y11867275D01*
X16831128Y11947448D01*
X16872039Y12023987D01*
X16897231Y12107034D01*
X16930441Y12187210D01*
X16947372Y12272328D01*
X16972563Y12355372D01*
X16981069Y12441734D01*
X16998000Y12526852D01*
X16998000Y12613637D01*
X17006506Y12700000D01*
X16998000Y12786363D01*
X16998000Y12873148D01*
X16981069Y12958266D01*
X16972563Y13044628D01*
X16947372Y13127672D01*
X16930441Y13212790D01*
X16897231Y13292966D01*
X16872039Y13376013D01*
X16831128Y13452552D01*
X16797919Y13532725D01*
X16749706Y13604882D01*
X16708796Y13681418D01*
X16653745Y13748497D01*
X16605528Y13820660D01*
X16544156Y13882032D01*
X16489108Y13949108D01*
X16463651Y13970000D01*
X16489108Y13990892D01*
X16544156Y14057968D01*
X16605528Y14119340D01*
X16653745Y14191503D01*
X16708796Y14258582D01*
X16749706Y14335118D01*
X16797919Y14407275D01*
X16831128Y14487448D01*
X16872039Y14563987D01*
X16897231Y14647034D01*
X16930441Y14727210D01*
X16947372Y14812328D01*
X16972563Y14895372D01*
X16981069Y14981734D01*
X16998000Y15066852D01*
X16998000Y15153637D01*
X17006506Y15240000D01*
X16998000Y15326363D01*
X16998000Y15413148D01*
X16981069Y15498266D01*
X16972563Y15584628D01*
X16947372Y15667672D01*
X16930441Y15752790D01*
X16897231Y15832966D01*
X16872039Y15916013D01*
X16831128Y15992552D01*
X16797919Y16072725D01*
X16749706Y16144882D01*
X16708796Y16221418D01*
X16653745Y16288497D01*
X16605528Y16360660D01*
X16544156Y16422032D01*
X16489108Y16489108D01*
X16463651Y16510000D01*
X16489108Y16530892D01*
X16544156Y16597968D01*
X16605528Y16659340D01*
X16653745Y16731503D01*
X16708796Y16798582D01*
X16749706Y16875118D01*
X16797919Y16947275D01*
X16831128Y17027448D01*
X16872039Y17103987D01*
X16897231Y17187034D01*
X16930441Y17267210D01*
X16947372Y17352328D01*
X16972563Y17435372D01*
X16981069Y17521734D01*
X16998000Y17606852D01*
X16998000Y17693637D01*
X17006506Y17780000D01*
X16998000Y17866363D01*
X16998000Y17953148D01*
X16981069Y18038266D01*
X16972563Y18124628D01*
X16947372Y18207672D01*
X16930441Y18292790D01*
X16897231Y18372966D01*
X16872039Y18456013D01*
X16831128Y18532552D01*
X16797919Y18612725D01*
X16749706Y18684882D01*
X16708796Y18761418D01*
X16653745Y18828497D01*
X16605528Y18900660D01*
X16544156Y18962032D01*
X16489108Y19029108D01*
X16463651Y19050000D01*
X16489108Y19070892D01*
X16544156Y19137968D01*
X16605528Y19199340D01*
X16653745Y19271503D01*
X16708796Y19338582D01*
X16749706Y19415118D01*
X16797919Y19487275D01*
X16831128Y19567448D01*
X16872039Y19643987D01*
X16897231Y19727034D01*
X16930441Y19807210D01*
X16947372Y19892328D01*
X16972563Y19975372D01*
X16981069Y20061734D01*
X16998000Y20146852D01*
X16998000Y20233637D01*
X17006506Y20320000D01*
X16998000Y20406363D01*
X16998000Y20493148D01*
X16981069Y20578266D01*
X16972563Y20664628D01*
X16947372Y20747672D01*
X16930441Y20832790D01*
X16897231Y20912966D01*
X16872039Y20996013D01*
X16831128Y21072552D01*
X16797919Y21152725D01*
X16749706Y21224882D01*
X16708796Y21301418D01*
X16653745Y21368497D01*
X16605528Y21440660D01*
X16544156Y21502032D01*
X16489108Y21569108D01*
X16463651Y21590000D01*
X16489108Y21610892D01*
X16544156Y21677968D01*
X16605528Y21739340D01*
X16653745Y21811503D01*
X16708796Y21878582D01*
X16749706Y21955118D01*
X16797919Y22027275D01*
X16831128Y22107448D01*
X16872039Y22183987D01*
X16897231Y22267034D01*
X16930441Y22347210D01*
X16947372Y22432328D01*
X16972563Y22515372D01*
X16981069Y22601734D01*
X16998000Y22686852D01*
X16998000Y22773637D01*
X17006506Y22860000D01*
X16998000Y22946363D01*
X16998000Y23033148D01*
X16981069Y23118266D01*
X16972563Y23204628D01*
X16947372Y23287672D01*
X16930441Y23372790D01*
X16897231Y23452966D01*
X16872039Y23536013D01*
X16831128Y23612552D01*
X16797919Y23692725D01*
X16749706Y23764882D01*
X16708796Y23841418D01*
X16653745Y23908497D01*
X16605528Y23980660D01*
X16544156Y24042032D01*
X16489108Y24109108D01*
X16463651Y24130000D01*
X16489108Y24150892D01*
X16544156Y24217968D01*
X16605528Y24279340D01*
X16653745Y24351503D01*
X16708796Y24418582D01*
X16749706Y24495118D01*
X16797919Y24567275D01*
X16831128Y24647448D01*
X16872039Y24723987D01*
X16897231Y24807034D01*
X16930441Y24887210D01*
X16947372Y24972328D01*
X16972563Y25055372D01*
X16981069Y25141734D01*
X16998000Y25226852D01*
X16998000Y25313637D01*
X17006506Y25400000D01*
X16998000Y25486363D01*
X16998000Y25573148D01*
X16981069Y25658266D01*
X16972563Y25744628D01*
X16947372Y25827672D01*
X16930441Y25912790D01*
X16897231Y25992966D01*
X16872039Y26076013D01*
X16831128Y26152552D01*
X16797919Y26232725D01*
X16749706Y26304882D01*
X16708796Y26381418D01*
X16653745Y26448497D01*
X16605528Y26520660D01*
X16544156Y26582032D01*
X16489108Y26649108D01*
X16463651Y26670000D01*
X16489108Y26690892D01*
X16544156Y26757968D01*
X16605528Y26819340D01*
X16653745Y26891503D01*
X16708796Y26958582D01*
X16749706Y27035118D01*
X16797919Y27107275D01*
X16831128Y27187448D01*
X16872039Y27263987D01*
X16897231Y27347034D01*
X16930441Y27427210D01*
X16947372Y27512328D01*
X16972563Y27595372D01*
X16981069Y27681734D01*
X16998000Y27766852D01*
X16998000Y27853637D01*
X17006506Y27940000D01*
X16998000Y28026363D01*
X16998000Y28113148D01*
X16981069Y28198266D01*
X16972563Y28284628D01*
X16947372Y28367672D01*
X16930441Y28452790D01*
X16897231Y28532966D01*
X16872039Y28616013D01*
X16831128Y28692552D01*
X16797919Y28772725D01*
X16749706Y28844882D01*
X16708796Y28921418D01*
X16653745Y28988497D01*
X16605528Y29060660D01*
X16544156Y29122032D01*
X16489108Y29189108D01*
X16463651Y29210000D01*
X16489108Y29230892D01*
X16544156Y29297968D01*
X16605528Y29359340D01*
X16653745Y29431503D01*
X16708796Y29498582D01*
X16749706Y29575118D01*
X16797919Y29647275D01*
X16831128Y29727448D01*
X16872039Y29803987D01*
X16897231Y29887034D01*
X16930441Y29967210D01*
X16947372Y30052328D01*
X16972563Y30135372D01*
X16981069Y30221734D01*
X16998000Y30306852D01*
X16998000Y30393637D01*
X17006506Y30480000D01*
X16998000Y30566363D01*
X16998000Y30653148D01*
X16981069Y30738266D01*
X16972563Y30824628D01*
X16947372Y30907672D01*
X16930441Y30992790D01*
X16897231Y31072966D01*
X16872039Y31156013D01*
X16831128Y31232552D01*
X16797919Y31312725D01*
X16749706Y31384882D01*
X16708796Y31461418D01*
X16653745Y31528497D01*
X16605528Y31600660D01*
X16544156Y31662032D01*
X16489108Y31729108D01*
X16463651Y31750000D01*
X16489108Y31770892D01*
X16544156Y31837968D01*
X16605528Y31899340D01*
X16653745Y31971503D01*
X16708796Y32038582D01*
X16749706Y32115118D01*
X16797919Y32187275D01*
X16831128Y32267448D01*
X16872039Y32343987D01*
X16897231Y32427034D01*
X16930441Y32507210D01*
X16947372Y32592328D01*
X16972563Y32675372D01*
X16981069Y32761734D01*
X16998000Y32846852D01*
X16998000Y32933637D01*
X17006506Y33020000D01*
X16998000Y33106363D01*
X16998000Y33193148D01*
X16981069Y33278266D01*
X16972563Y33364628D01*
X16947372Y33447672D01*
X16930441Y33532790D01*
X16897231Y33612966D01*
X16872039Y33696013D01*
X16831128Y33772552D01*
X16797919Y33852725D01*
X16749706Y33924882D01*
X16708796Y34001418D01*
X16653745Y34068497D01*
X16605528Y34140660D01*
X16544156Y34202032D01*
X16489108Y34269108D01*
X16459552Y34293364D01*
X16605528Y34439340D01*
X16797919Y34727275D01*
X16930441Y35047210D01*
X16998000Y35386852D01*
X16998000Y35733148D01*
X16930441Y36072790D01*
X16797919Y36392725D01*
X16605528Y36680660D01*
X16360660Y36925528D01*
X16072725Y37117919D01*
X15752790Y37250441D01*
X15413148Y37318000D01*
X15066852Y37318000D01*
X14727210Y37250441D01*
X14407275Y37117919D01*
X14119340Y36925528D01*
X13874472Y36680660D01*
X13682081Y36392725D01*
X13549559Y36072790D01*
X13482000Y35733148D01*
X13482000Y35386852D01*
X13549559Y35047210D01*
X13661070Y34778000D01*
X6176852Y34778000D01*
X6091734Y34761069D01*
X6005372Y34752563D01*
X5922328Y34727372D01*
X5837210Y34710441D01*
X5757034Y34677231D01*
X5673987Y34652039D01*
X5597448Y34611128D01*
X5517275Y34577919D01*
X5445118Y34529706D01*
X5368582Y34488796D01*
X5301503Y34433745D01*
X5229340Y34385528D01*
X5167968Y34324156D01*
X5100892Y34269108D01*
X5045844Y34202032D01*
X4984472Y34140660D01*
X4936255Y34068497D01*
X4881204Y34001418D01*
X4840294Y33924882D01*
X4792081Y33852725D01*
X4758872Y33772552D01*
X4717961Y33696013D01*
X4692769Y33612966D01*
X4659559Y33532790D01*
X4642628Y33447672D01*
X4617437Y33364628D01*
X4608931Y33278266D01*
X4592000Y33193148D01*
X4592000Y33106363D01*
X4583494Y33020000D01*
X4592000Y32933637D01*
X4592000Y32846852D01*
X4608931Y32761734D01*
X4617437Y32675372D01*
X4642628Y32592328D01*
X4659559Y32507210D01*
X4692769Y32427034D01*
X4717961Y32343987D01*
X4758872Y32267448D01*
X4792081Y32187275D01*
X4840294Y32115118D01*
X4881204Y32038582D01*
X4936255Y31971503D01*
X4984472Y31899340D01*
X5045844Y31837968D01*
X5100892Y31770892D01*
X5167968Y31715844D01*
X5229340Y31654472D01*
X5301503Y31606255D01*
X5368582Y31551204D01*
X5445118Y31510294D01*
X5517275Y31462081D01*
X5597448Y31428872D01*
X5673987Y31387961D01*
X5757034Y31362769D01*
X5837210Y31329559D01*
X5922328Y31312628D01*
X6005372Y31287437D01*
X6091734Y31278931D01*
X6176852Y31262000D01*
X7311070Y31262000D01*
X7298872Y31232552D01*
X7257961Y31156013D01*
X7232769Y31072966D01*
X7199559Y30992790D01*
X7182628Y30907672D01*
X7157437Y30824628D01*
X7148931Y30738266D01*
X7132000Y30653148D01*
X7132000Y30566363D01*
X7123494Y30480000D01*
X7132000Y30393637D01*
X7132000Y30306852D01*
X7148931Y30221734D01*
X7157437Y30135372D01*
X7182628Y30052328D01*
X7199559Y29967210D01*
X7232769Y29887034D01*
X7257961Y29803987D01*
X7298872Y29727448D01*
X7311070Y29698000D01*
X2366852Y29698000D01*
X2281734Y29681069D01*
X2195372Y29672563D01*
X2112328Y29647372D01*
X2027210Y29630441D01*
X1947034Y29597231D01*
X1863987Y29572039D01*
X1787448Y29531128D01*
X1707275Y29497919D01*
X1635118Y29449706D01*
X1558582Y29408796D01*
X1491503Y29353745D01*
X1419340Y29305528D01*
X1357968Y29244156D01*
X1290892Y29189108D01*
X1235844Y29122032D01*
X1174472Y29060660D01*
X1126255Y28988497D01*
X1071204Y28921418D01*
X1030294Y28844882D01*
X982081Y28772725D01*
X948872Y28692552D01*
X907961Y28616013D01*
X882769Y28532966D01*
X849559Y28452790D01*
X832628Y28367672D01*
X807437Y28284628D01*
X798931Y28198266D01*
X782000Y28113148D01*
X782000Y28026363D01*
X773494Y27940000D01*
X683000Y27940000D01*
X683000Y37417000D01*
X17097000Y37417000D01*
X17097001Y683000D01*
%TD*%
M02*
