M48
; DRILL file {KiCad (5.1.6)-1} date 03/03/22 11:37:56
; FORMAT={-:-/ absolute / metric / decimal}
; #@! TF.CreationDate,2022-03-03T11:37:56-05:00
; #@! TF.GenerationSoftware,Kicad,Pcbnew,(5.1.6)-1
FMAT,2
METRIC
T1C0.900
T2C1.000
T3C5.000
%
G90
G05
T1
X17.2Y73.08
X27.94Y78.74
X30.48Y81.28
X30.48Y68.58
X31.75Y27.94
X31.75Y10.16
X38.1Y45.72
X41.91Y52.07
X41.91Y27.94
X45.72Y73.66
X50.8Y81.28
X53.34Y81.28
X53.34Y71.12
X53.34Y68.58
X53.34Y43.18
X53.34Y36.83
X53.34Y31.75
X53.34Y22.86
X53.34Y10.16
X58.42Y73.66
X58.42Y22.86
X58.674Y39.624
X60.96Y22.86
X60.96Y12.7
X61.087Y36.195
X66.04Y15.24
X66.04Y15.24
X71.12Y73.66
X76.2Y81.28
X76.2Y71.12
X81.28Y73.66
X83.82Y15.24
X83.82Y10.16
X85.979Y53.975
X86.36Y27.94
X86.36Y7.62
X88.9Y43.18
X88.9Y40.64
X88.9Y27.94
X99.06Y40.64
X111.76Y40.64
X124.46Y40.64
X73.66Y86.36
X76.2Y86.36
X129.54Y63.5
X129.54Y55.88
X27.94Y86.36
X30.48Y86.36
X76.2Y78.74
X76.2Y66.04
X78.74Y78.74
X78.74Y66.04
X81.28Y78.74
X81.28Y66.04
X83.82Y78.74
X83.82Y66.04
X86.36Y78.74
X86.36Y66.04
X88.9Y78.74
X88.9Y66.04
X91.44Y78.74
X91.44Y66.04
X93.98Y78.74
X93.98Y66.04
X111.76Y93.98
X111.76Y91.44
X104.14Y50.8
X104.14Y40.64
X71.12Y43.18
X38.1Y13.97
X40.64Y13.97
X109.22Y55.88
X109.22Y40.64
X134.62Y63.5
X134.62Y50.8
X109.22Y93.98
X109.22Y91.44
X104.14Y63.5
X104.14Y53.34
X121.92Y35.56
X124.46Y35.56
X139.7Y53.34
X142.24Y53.34
X27.94Y54.61
X33.02Y54.61
X53.34Y78.74
X53.34Y66.04
X55.88Y78.74
X55.88Y66.04
X58.42Y78.74
X58.42Y66.04
X60.96Y78.74
X60.96Y66.04
X63.5Y78.74
X63.5Y66.04
X66.04Y78.74
X66.04Y66.04
X68.58Y78.74
X68.58Y66.04
X71.12Y78.74
X71.12Y66.04
X127.0Y55.88
X127.0Y40.64
X132.08Y63.5
X132.08Y53.34
X121.92Y93.98
X121.92Y91.44
X114.3Y93.98
X114.3Y91.44
X139.7Y48.26
X142.24Y48.26
X139.7Y55.88
X142.24Y55.88
X129.54Y93.98
X129.54Y91.44
X106.68Y63.5
X106.68Y55.88
X124.46Y93.98
X124.46Y91.44
X139.7Y50.8
X142.24Y50.8
X93.98Y48.26
X96.52Y48.26
X101.6Y48.26
X101.6Y40.64
X132.08Y50.8
X132.08Y40.64
X101.6Y63.5
X101.6Y50.8
X99.06Y63.5
X99.06Y48.26
X45.72Y45.72
X45.72Y20.32
X48.26Y45.72
X48.26Y20.32
X50.8Y45.72
X50.8Y20.32
X53.34Y45.72
X53.34Y20.32
X55.88Y45.72
X55.88Y20.32
X58.42Y45.72
X58.42Y20.32
X60.96Y45.72
X60.96Y20.32
X63.5Y45.72
X63.5Y20.32
X66.04Y45.72
X66.04Y20.32
X68.58Y45.72
X68.58Y20.32
X71.12Y45.72
X71.12Y20.32
X73.66Y45.72
X73.66Y20.32
X76.2Y45.72
X76.2Y20.32
X78.74Y45.72
X78.74Y20.32
X81.28Y45.72
X81.28Y20.32
X93.98Y50.8
X96.52Y50.8
X81.28Y53.975
X81.28Y51.435
X106.68Y53.34
X106.68Y40.64
X134.62Y48.26
X134.62Y40.64
X127.0Y93.98
X127.0Y91.44
X106.68Y93.98
X106.68Y91.44
X96.52Y15.24
X96.52Y7.62
X76.2Y43.18
X93.98Y53.34
X96.52Y53.34
X63.5Y93.98
X93.98Y55.88
X96.52Y55.88
X129.54Y53.34
X129.54Y40.64
X50.8Y86.36
X53.34Y86.36
X91.44Y20.32
X91.44Y17.78
X91.44Y15.24
X91.44Y12.7
X91.44Y10.16
X91.44Y7.62
X137.16Y63.5
X137.16Y48.26
X30.48Y78.74
X30.48Y66.04
X33.02Y78.74
X33.02Y66.04
X35.56Y78.74
X35.56Y66.04
X38.1Y78.74
X38.1Y66.04
X40.64Y78.74
X40.64Y66.04
X43.18Y78.74
X43.18Y66.04
X45.72Y78.74
X45.72Y66.04
X48.26Y78.74
X48.26Y66.04
X73.66Y43.18
T2
X139.7Y33.02
X139.7Y30.48
X58.42Y93.98
X60.96Y93.98
X66.04Y93.98
X60.96Y7.62
X63.5Y7.62
X66.04Y7.62
X68.58Y7.62
X71.12Y7.62
X73.66Y7.62
X76.2Y7.62
X78.74Y7.62
X9.66Y73.08
X9.76Y68.58
X9.76Y64.08
X10.66Y73.08
X10.76Y68.58
X10.76Y64.08
X139.7Y25.4
X139.7Y22.86
X10.16Y25.4
X9.144Y51.816
X9.144Y50.8
X9.144Y49.784
X11.176Y45.974
X12.192Y45.974
X13.208Y45.974
X15.24Y51.816
X15.24Y50.8
X15.24Y49.784
X20.32Y93.98
X22.86Y93.98
X81.28Y93.98
X83.82Y93.98
X86.36Y93.98
X88.9Y93.98
X26.67Y7.62
X29.21Y7.62
X114.3Y60.96
X114.3Y58.42
X114.3Y55.88
X114.3Y53.34
X114.3Y50.8
X114.3Y48.26
X114.3Y45.72
X114.3Y43.18
X121.92Y60.96
X121.92Y58.42
X121.92Y55.88
X121.92Y53.34
X121.92Y50.8
X121.92Y48.26
X121.92Y45.72
X121.92Y43.18
X10.16Y20.32
X10.16Y33.02
X48.26Y7.62
X50.8Y7.62
X53.34Y7.62
X16.51Y29.21
X16.51Y13.97
X25.4Y29.21
X25.4Y13.97
X35.56Y93.98
X38.1Y93.98
X40.64Y93.98
X43.18Y93.98
X12.7Y93.98
X15.24Y93.98
X10.16Y38.1
T3
X7.62Y83.82
X7.62Y7.62
X142.24Y83.82
X142.24Y7.62
T0
M30
