M48
; DRILL file {KiCad (5.1.6)-1} date 09/19/21 14:35:40
; FORMAT={-:-/ absolute / inch / decimal}
; #@! TF.CreationDate,2021-09-19T14:35:40-05:00
; #@! TF.GenerationSoftware,Kicad,Pcbnew,(5.1.6)-1
FMAT,2
INCH
T1C0.0315
%
G90
G05
T1
X0.45Y-0.9
X0.15Y-1.2
X0.15Y-0.4
X0.15Y-1.4
X0.15Y-1.0
X0.75Y-1.7
X0.75Y-1.6
X0.75Y-1.5
X0.75Y-1.4
X0.75Y-1.3
X0.75Y-1.2
X0.75Y-1.1
X0.75Y-1.0
X0.75Y-0.9
X0.75Y-0.8
X0.75Y-0.7
X0.75Y-0.6
X0.75Y-0.5
X0.75Y-0.4
X0.15Y-0.9
X0.55Y-0.7
X0.55Y-0.4
X0.55Y-1.3
X0.45Y-1.5
X0.15Y-0.5
X0.15Y-0.8
X0.45Y-0.7
X0.45Y-0.4
X0.35Y-1.6
X0.15Y-0.6
X0.55Y-1.0
X0.35Y-1.2
X0.35Y-1.1
X0.35Y-0.7
T0
M30
